<?xml version="1.0" encoding="utf-8"?>
<!-- Generator: Adobe Illustrator 15.1.0, SVG Export Plug-In . SVG Version: 6.00 Build 0)  -->
<!DOCTYPE svg PUBLIC "-//W3C//DTD SVG 1.1//EN" "http://www.w3.org/Graphics/SVG/1.1/DTD/svg11.dtd">
<svg version="1.1" id="icons" xmlns="http://www.w3.org/2000/svg" xmlns:xlink="http://www.w3.org/1999/xlink" x="0px" y="0px"
	 width="323px" height="323px" viewBox="0 0 323 323" enable-background="new 0 0 323 323" xml:space="preserve">
<g id="mental_health" display="none">
	<g id="Layer_1_1_">
		<image display="inline" overflow="visible" enable-background="new    " width="323" height="323" xlink:href="2C56BDB6.png" >
		</image>
	</g>
	<g id="Layer_2">
		<g display="inline">
			<path fill="#FFFFFF" d="M15.066,7c97.532,0,195.068,0,292.6,0c0,102.912,0,205.82,0,308.733c-97.777,0-195.556,0-293.333,0
				c0-102.179,0-204.354,0-306.533C14.27,8.159,14.212,7.124,15.066,7z M243.133,241.666c0.788-8.048,2.441-16.514,4.4-23.466
				c7.597-26.976,28.613-43.836,33.732-72.601c4.353-24.455-2.393-43.653-7.334-62.333c-7.394-11.968-12.496-23.598-22-33
				C228.548,27.131,188.762,19.054,150,21.667C128.578,23.11,106.124,32.515,91.333,44.4c-14.216,11.423-21.42,29.048-27.867,49.133
				c-2.446,7.621-5.368,15.593-5.867,21.267c-0.852,9.688,4.784,13.035,4.4,20.533c-0.393,7.675-9.617,15.041-13.933,21.267
				c-5.384,7.767-10.585,14.597-11.733,24.2c2.645,7.377,12.085,7.959,17.6,12.468c-0.292,3.771-2.525,7.715-1.467,13.199
				c0.431,2.233,3.124,4.227,3.667,7.333c0.333,1.9-0.535,4.619,0,6.601c0.828,3.067,3.917,5.5,4.4,8.802
				c1.629,11.112-4.214,23.647,5.133,30.065c14.579,9.508,46.58-2.146,52.8,15.398c2.34,6.602,0.299,14.951,2.933,23.467
				c43.755,0,87.512,0,131.267,0C247.459,280.111,240.964,263.803,243.133,241.666z"/>
			<path fill="#FFFFFF" d="M198.398,40.733c-3.211,3.585-13.533,2.454-2.935,1.467C196.674,42.087,196.242,40.597,198.398,40.733z"
				/>
			<path fill="#FFFFFF" d="M114.066,46.6c-1.333,3.067-8.216,0.583-6.6,6.6c0.458,1.741,4.514-0.114,5.133,1.466
				c-0.458,1.742-4.514-0.114-5.133,1.467c-0.437,1.519,0.906,4.817-0.733,5.133c-2.904-2.129-1.176-12.314-1.467-14.667
				C106.628,45.774,110.716,47.122,114.066,46.6z"/>
			<path fill="#FFFFFF" d="M125.066,48.066c-2.113,0.088-4.801-0.4-5.867,0.733c-1.281,0.675-1.619,2.293-1.467,4.4
				c1.061,2.114,4.365-1.602,5.867,0.733c-0.164,2.281-3.65,1.239-5.867,1.467c-0.097,1.808-0.111,3.533,0.733,4.4
				c2.932,0.244,4.07-1.307,7.333-0.733c2.487-4.112,2.671-10.529,6.6-13.2c3.526,2.881,5.687,11.396,3.667,15.4
				c-1.29-0.177-1.672-1.262-1.467-2.933c-2.945,0.233-7.541-1.185-6.6,2.933c-9.293,1.509-14.593-0.347-12.467-13.2
				C117.851,47.49,124.806,43.892,125.066,48.066z M128.733,56.867c2.314,0.359,2.589-1.322,5.133-0.733
				c-0.163-3.015,0.593-6.949-2.2-7.333C130.795,51.596,129.717,54.184,128.733,56.867z"/>
			<path fill="#FFFFFF" d="M150.733,50.267c0.248,3.426-2.032,4.324-3.667,5.867c1.552,1.625,4.53,1.826,4.4,5.133
				c-3.201-0.955-4.657-3.654-8.067-4.4c-2.39,1.206,1.341,3.979-0.733,5.133c-3.102-0.076-0.698-5.657-3.667-5.867
				c1.907-2.375,2.425-6.203,1.467-9.533C144.001,45.431,149.383,46.995,150.733,50.267z M142.666,54.667
				c4.041,0.374,6.129-1.205,5.867-5.133c-1.63-0.57-2.859-1.541-5.133-1.467C143.792,50.903,142.091,51.646,142.666,54.667z"/>
			<path d="M143.399,48.066c2.274-0.074,3.503,0.896,5.133,1.467c0.262,3.929-1.826,5.507-5.867,5.133
				C142.091,51.646,143.792,50.903,143.399,48.066z"/>
			<path d="M131.666,48.8c2.793,0.385,2.038,4.318,2.2,7.333c-2.544-0.588-2.819,1.092-5.133,0.733
				C129.717,54.184,130.795,51.596,131.666,48.8z"/>
			<path fill="#FFFFFF" d="M158.799,70.066c-0.472,2.598-4.592-0.69-6.6,1.467c1.489,4.531,7.186,2.493,7.333,7.333
				c0.136,4.455-7.057,7.937-11,2.933c0.555-3.21,6.362,1.549,7.333-2.2c-0.761-2.905-4.622-2.712-6.6-4.4
				C145.855,69.702,155.995,64.632,158.799,70.066z"/>
			<path fill="#FFFFFF" d="M172.732,68.6c1.031,3.231-2.414,1.987-4.399,2.2c-0.479,4.166,0.964,10.253-0.733,13.2
				c-0.488,0-0.978,0-1.467,0c-3.256-1.389-0.609-8.679-1.467-12.467c-0.091-1.62-3.11-0.312-4.4-0.733c0-0.733,0-1.467,0-2.2
				C162.874,67.521,170.164,67.28,172.732,68.6z"/>
			<path fill="#FFFFFF" d="M174.934,67.867c4.57-0.171,9.082-0.283,11,2.2c-1.617,6.846-1.479,7.319,0.732,13.934
				c-6.514,1.87-2.624-6.665-7.333-6.6c-2.132,0.557,0.665,6.043-1.467,6.6c-0.489,0-0.978,0-1.468,0
				C173.085,81.448,175.832,72.834,174.934,67.867z M178.6,75.2c2.978,0.287,4.239-1.138,3.668-4.4c-1.224,0-2.444,0-3.668,0
				C178.6,72.267,178.6,73.733,178.6,75.2z"/>
			<path fill="#FFFFFF" d="M188.866,67.867c2.875,0.792,9.03-1.698,9.532,1.466c0.449,2.893-4.025,0.863-5.865,1.467
				c0,0.978,0,1.956,0,2.934c0.324,2.118,5.539-0.652,5.865,1.466c0.49,3.179-3.402,1.975-5.865,2.2c0,0.978,0,1.956,0,2.933
				c0.324,2.119,5.539-0.651,5.865,1.467c0.471,4.381-6.56,1.264-9.532,2.2C188.866,78.622,188.866,73.244,188.866,67.867z"/>
			<path fill="#FFFFFF" d="M210.866,70.066c-0.472,2.598-4.593-0.69-6.601,1.467c1.488,4.531,7.187,2.493,7.334,7.333
				c0.135,4.455-7.06,7.937-11,2.933c0.555-3.21,6.359,1.549,7.332-2.2c-0.762-2.905-4.621-2.712-6.601-4.4
				C197.922,69.702,208.062,64.632,210.866,70.066z"/>
			<path fill="#FFFFFF" d="M223.333,70.8c-0.822,1.389-5.368-1.688-5.867,1.467c2.248,3.856,7.091,2.252,6.601,7.333
				c-0.361,3.759-7.002,7.058-10.267,2.2c-0.407-3.451,6.252,1.751,6.601-2.2c-0.955-3.202-5.767-2.546-6.601-5.867
				C211.643,67.976,223.111,65.006,223.333,70.8z"/>
			<path d="M178.6,70.8c1.224,0,2.444,0,3.668,0c0.571,3.262-0.69,4.687-3.668,4.4C178.6,73.733,178.6,72.267,178.6,70.8z"/>
			<path fill="#FFFFFF" d="M106.733,93.533c3.803,2.552,4.557,8.154,5.867,13.2c-2.771-0.896-2.155-5.179-7.333-3.667
				c-2.31,0.135-0.939,3.95-3.667,3.667C103.034,102.056,104.646,97.557,106.733,93.533z M105.266,101.6c1.222,0,2.444,0,3.667,0
				c0.02-2.464-1.01-3.879-2.2-5.133C106.853,98.787,104.784,98.917,105.266,101.6z"/>
			<path fill="#FFFFFF" d="M114.8,93.533c4.661,0.717,5.027,5.728,7.333,8.8c1.984-1.438-0.447-7.292,1.467-8.8
				c2.687,1.654,1.581,10.387,0.733,13.2c-3.853-1.77-4.944-6.301-7.333-9.534c-1.687,1.736-0.263,6.582-0.733,9.534
				C113.213,104.897,115.515,97.707,114.8,93.533z"/>
			<path fill="#FFFFFF" d="M127.266,93.533c2.864,0.07,2.903,2.964,4.4,4.4c2.515-0.664,1.484-4.871,5.133-4.4
				c-0.929,2.249-2.497,3.858-3.667,5.867c0.273,3.394,3.176,4.157,3.667,7.333c-3.089-0.333-3.517-3.328-5.133-5.133
				c-1.504,1.428-2.408,3.458-3.667,5.133c-2.159-1.971,1.769-4.056,2.2-5.867C130.529,97.115,127.37,96.852,127.266,93.533z"/>
			<path fill="#FFFFFF" d="M139,93.533c3.498,0.247,3.498,12.953,0,13.2C139,102.333,139,97.933,139,93.533z"/>
			<path fill="#FFFFFF" d="M144.133,93.533c2.444,0,4.889,0,7.333,0c0.588,2.788-3.468,0.933-5.133,1.467c0,0.978,0,1.956,0,2.933
				c0.308,1.647,3.891,0.02,4.4,1.467c-0.091,1.62-3.111,0.312-4.4,0.733c0,1.467,0,2.933,0,4.4c0.176,2.269,6.035-1.146,5.133,2.2
				c-2.445,0-4.889,0-7.333,0C144.133,102.333,144.133,97.933,144.133,93.533z"/>
			<path fill="#FFFFFF" d="M152.2,93.533c3.667,0,7.333,0,11,0c0.694,2.65-2.888,1.023-4.4,1.467
				c-0.875,3.77,2.08,11.368-2.2,11.733c0-3.667,0-7.333,0-11C156.587,93.545,151.165,96.768,152.2,93.533z"/>
			<path fill="#FFFFFF" d="M163.934,93.533c3.178,0.245,2.782,4.062,4.399,5.867c2.196-1.469,2.205-5.128,5.133-5.867
				c-2.864,3.49-2.467,10.244-5.866,13.2C168.742,99.968,164.73,98.357,163.934,93.533z"/>
			<path d="M106.733,96.467c1.19,1.254,2.22,2.669,2.2,5.133c-1.223,0-2.445,0-3.667,0
				C104.784,98.917,106.853,98.787,106.733,96.467z"/>
			<path fill="#FFFFFF" d="M188.133,103.066c3.713-0.291-1.174,8.018,4.4,5.867c-0.092,1.62-3.111,0.312-4.4,0.733
				C188.133,107.467,188.133,105.267,188.133,103.066z"/>
			<path d="M196.199,103.066c3.021-0.384,3.732,3.968,2.199,5.867c-0.979,0-1.955,0-2.935,0
				C193.932,107.311,194.893,104.049,196.199,103.066z"/>
			<path fill="#FFFFFF" d="M209.398,103.066c1.224,0,2.443,0,3.668,0c2.145,1.892-2.787-0.487-2.936,1.467
				c-0.09,1.193,2.794,2.531,2.936,1.467c0.047-0.363-6.021,4.022,0.731,2.933c-0.092,1.62-3.11,0.312-4.399,0.733
				C209.398,107.467,209.398,105.267,209.398,103.066z"/>
			<path fill="#FFFFFF" d="M215.999,103.8c2.026-1.978-1.437,7.755,3.667,5.133c0.124,1.59-2.602,0.333-3.667,0.733
				C215.999,107.711,215.999,105.755,215.999,103.8z"/>
			<path fill="#FFFFFF" d="M232.133,103.066c1.223,0,2.444,0,3.667,0c2.146,1.892-2.786-0.487-2.934,1.467
				c-0.091,1.193,2.794,2.531,2.934,1.467c0.048-0.363-6.021,4.022,0.733,2.933c-0.092,1.62-3.111,0.312-4.4,0.733
				C232.133,107.467,232.133,105.267,232.133,103.066z"/>
			<path fill="#FFFFFF" d="M138.266,121.4c4.028,0.022-4.139,8.682,1.467,8.066c-0.089,1.866-1.067,2.844-2.934,2.934
				c-0.02-0.713-0.897-0.569-1.466-0.733C135.652,127.586,137.238,124.771,138.266,121.4z"/>
			<path fill="#FFFFFF" d="M207.934,123.6c1.396,1.914-1.713,4.229-0.732,5.867c0.048,0.08,2.932,1.305,2.934,0.733
				c-0.012,3.189-1.305-1.497-2.934,0.733c-1.553,2.125,2.279,6.89-1.469,8.067c-0.101-3.689,0.147-7.895,0-8.067
				c-1.732-2.031-4.099,1.76-0.731-0.733c1.478-1.094,1.293-3.979,1.467-7.333c-2.36-0.162-3.104,1.297-5.864,0.733
				c1.78-1.585,10.39-3.023,14.666-2.2C219.334,122.183,209.382,121.781,207.934,123.6z"/>
			<path fill="#FFFFFF" d="M149.266,123.6c2.464-0.753,1.142,2.281,1.467,3.667c2.112-0.088,1.273-3.127,3.667-2.934
				c0.911,3,1.908,5.915,2.934,8.8c-2.798-0.38-3.74-2.616-3.667-5.867c-1.918,1.503-2.467,4.377-3.667,6.6
				C148.31,131.89,149.739,126.793,149.266,123.6z"/>
			<path fill="#FFFFFF" d="M169.8,129.466c1.438-1.017-1.54-3.789-1.467-5.867c2.069-0.114,1.838,2.073,2.935,2.934
				c0.858-0.118,0.617-1.337,0.732-2.2c3.87,0.53,5.334,3.466,7.333,5.867c-2.591-0.342-4.631-1.236-5.134-3.667
				c-2.319,0.797-0.321,2.995-2.199,5.133c-1.376-2.331-1.559-0.558-2.934,0.733c-3.717-0.439-3.693-4.618-4.4-8.067
				c0.59,0.388,1.189,0.765,2.2,0.733C165.79,129.223,168.736,129.351,169.8,129.466z"/>
			<path fill="#FFFFFF" d="M179.333,125.066c-0.126,3.963,3.793-0.368,3.666,2.934c-3.239,0.062-6.231-0.124-5.866-3.667
				c4.367-1.405,8.764,2.112,11.733,4.4c-0.687,3.225-2.655,5.167-6.601,5.133c-0.519-3.206,3.813-1.563,4.398-3.667
				C185.379,127.332,183.008,125.547,179.333,125.066z"/>
			<path fill="#FFFFFF" d="M147.799,125.066c1.535,3.538-0.546,7.702-4.4,8.067c-1.153-0.558-1.096-2.327-2.933-2.2
				C139.894,125.943,143.29,122.737,147.799,125.066z M142.666,130.2c2.612,0.168,3.834-1.055,3.667-3.667
				c-0.992-0.23-1.401-1.044-2.934-0.733C142.464,127.707,141.791,128.012,142.666,130.2z"/>
			<path fill="#FFFFFF" d="M163.934,144.133c-2.953-0.47-5.562-1.283-5.134-5.133c1.792-1.859,1.562,1.546,4.4,0.733
				c1.5-4.205-0.194-11.527-2.933-13.934c-3.316,1.139-0.327,4.042,1.466,4.4c0.257,3.001-3.443-0.318-4.399-0.733
				c-0.425-2.38,0.5-3.412,0.733-5.133C167.062,123.689,166.082,138.199,163.934,144.133z"/>
			<path d="M126.533,126.533c-0.6,1.545-3.866,2.012-5.133,0.733C122.139,124.41,123.924,127.153,126.533,126.533z"/>
			<path d="M143.399,125.8c1.533-0.311,1.942,0.503,2.934,0.733c0.167,2.612-1.055,3.834-3.667,3.667
				C141.791,128.012,142.464,127.707,143.399,125.8z"/>
			<path d="M214.533,139c-3.195-1.346-0.036-6.122,0-8.8C217.467,132.036,214.918,136.201,214.533,139z"/>
			<path fill="#FFFFFF" d="M170.533,34.133c-1.582-1.417,5.604-0.706,6.6,0c0.87-3.07-1.115-3.284-3.667-2.933
				c-2.112-1.228,3.747-0.583,5.134-0.733c1.012,3.389-2.549,11.349,2.936,10.267c-2.135-0.044-14.758,4.193-17.602-1.467
				c-1.074-3.362,5.402-5.872,4.399-4.4c-1.373,0.828-3.533,0.867-2.935,3.667c0.521,4.757,9.014,2.863,11.732,1.467
				C178.104,34.875,175.408,33.414,170.533,34.133z"/>
			<path fill="#FFFFFF" d="M192.533,34.133c1.124,1.412-6.721,0.093-7.334,2.2c0.927,1.452,12.275,1.622,5.134,2.2
				c-1.722-0.234-2.753-1.158-5.134-0.733c-0.6,2.8,1.562,2.839,2.934,3.667C183.907,43.743,181.363,31.098,192.533,34.133z"/>
			<path fill="#FFFFFF" d="M199.133,39.267c-1.533,1.599-2.093-0.366-4.4,0c-2.342-1.003,2.869-1.003,2.936,0
				C193.098,33.732,196.152,34.144,199.133,39.267z"/>
			<path fill="#FFFFFF" d="M157.333,44.4c1.604-2.32-1.089-5.416-1.467-8.066c2.649,0.528,2.634,3.721,2.933,6.6
				c1.222,0,2.445,0,3.667,0c0.515,0.8-5.143,1.669-7.333,2.2C153.782,47.127,155.044,43.18,157.333,44.4z"/>
			<path fill="#FFFFFF" d="M202.8,45.867c1.048-1.672,3.523-5.722,2.199-7.333c1.271-2.379,1.922,1.905,4.399,0.733
				c0.082,0.607-5.27,2.037-4.399,5.867c0.538,0.685,1.334,1.111,2.2,1.467C208.479,48.578,204.736,45.299,202.8,45.867z"/>
			<path fill="#FFFFFF" d="M213.8,41.467c4.63-1.968,2.507,7.201,3.666,10.267c0.97,1.507-4.626-1.887-5.866-2.934
				c-1.981-1.362,1.547,0.319,2.2,0.733c1.854-0.589,1.87-3.019,2.933-4.4C216.684,42.983,215.057,42.41,213.8,41.467z"/>
			<path fill="#FFFFFF" d="M223.333,46.6c-2.049-2.129,3.092,2.548,3.666,0c0.479,1.702,0.623,3.686,3.667,4.4
				c-1.553,2.436-2.129-2.201-4.4-1.467c-1.266,1.667-3.033,2.833-2.933,5.867c1.247,2.972,4.377,2.029,6.601,0.733
				c-1.504,4.294-7.086,1.167-8.065-1.467c0.562-2.617,1.891-4.464,3.667-5.867C225.757,47.109,223.414,47.985,223.333,46.6z"/>
			<path fill="#FFFFFF" d="M233.6,55.4c0.016-3.013,3.653,1.246,3.666,2.934c-2.002,0.931-2.924,2.942-4.397,4.4
				c-0.534,2,1.457,1.476,1.467,2.933c0.886,1.191-4.194-3.358-5.134-5.133c-1.604-1.771,1.39,1.146,2.199,1.467
				c1.775-1.157,3.242-2.624,4.399-4.4C235.934,56,235.199,55.267,233.6,55.4z"/>
			<path fill="#FFFFFF" d="M240.934,61.267c1.301,0.006,2.125,4.116,3.666,1.467c1.092,1.186-0.482,3.529,1.467,5.133
				c1.49,1.85-1.762-1.402-2.198-2.2c-4.099,0.888-6.67,5.136-2.935,8.067c1.768,0.3,1.594-1.339,3.666-0.733
				c-2.154,3.712-6.645-0.553-6.601-3.667C238.621,65.381,244.652,65.59,240.934,61.267z"/>
			<path fill="#FFFFFF" d="M248.999,72.267c-1.199-1.463,3.134,2.85,2.935,5.133c1.559,1.787-1.047-0.818-1.468-1.467
				c-1.356,2.065-2.271,4.574-2.933,7.333c1.874,1.547,5.697,1.146,7.333,2.933c2.196-0.482-0.701-1.567,0-2.933
				c-0.57-1.709,2.68,4.356,2.934,6.6c-4.133-6.177-20.224-4.165-17.601-14.667c0.963,0.259,1.152,1.292,2.199,1.467
				c0.402,1.626-1.399,1.044-1.467,2.2c1.187,1.748,2.019,3.849,4.399,4.4C247.58,80.683,249.833,75.659,248.999,72.267z"/>
			<path fill="#FFFFFF" d="M199.866,103.8c1.497,3.669-1.132,7.903-5.134,5.867C191.98,105.15,196.283,99.992,199.866,103.8z
				 M195.466,108.933c0.979,0,1.956,0,2.935,0c1.531-1.899,0.82-6.25-2.199-5.867C194.893,104.049,193.932,107.311,195.466,108.933z
				"/>
			<path fill="#FFFFFF" d="M243.133,103.8c-0.72,2.249-1.957-0.843-2.934-0.733c-0.652,0.325-1.312,0.644-1.467,1.467
				c0.619,1.58,3.217,1.183,4.398,2.2c0.59,4.234-5.057,4.455-5.134,0.733c0.712,1.244,2.026,1.884,4.399,1.466
				c0.115-2.804-2.994-2.383-4.399-3.667C237.904,101.956,241.73,101.77,243.133,103.8z"/>
			<path fill="#FFFFFF" d="M248.999,104.533c-0.963-0.259-1.153-1.291-2.199-1.467c-0.595,0.14-0.731,0.736-1.467,0.733
				c-0.256,2.945,3.442,1.934,4.399,3.667c-0.158,2.605-4.758,4.326-5.133,0.733c0.442,0.423,3.479,1.716,3.666,0
				c0.27-2.225-2.391-1.522-3.666-2.2C243.314,101.951,248.921,101.238,248.999,104.533z"/>
			<path fill="#FFFFFF" d="M203.533,105.267c-1.592-0.124-0.333,2.601-0.733,3.667c-1.302,1.957-0.534-4.296-0.733-5.867
				c2.645,0.291,2.238,3.629,3.666,5.133c1.621-0.091,0.312-3.111,0.733-4.4c1.302-1.957,0.534,4.297,0.733,5.867
				C204.396,109.782,204.816,106.672,203.533,105.267z"/>
			<path fill="#FFFFFF" d="M226.266,105.267c-1.59-0.124-0.332,2.601-0.73,3.667c-1.303,1.957-0.535-4.296-0.733-5.867
				c2.644,0.291,2.237,3.629,3.666,5.133c1.62-0.091,0.312-3.111,0.733-4.4c1.301-1.957,0.533,4.297,0.732,5.867
				C227.129,109.782,227.55,106.672,226.266,105.267z"/>
			<path fill="#FFFFFF" d="M225.533,139.733c-6.332-2.991-1.758-12.963-0.733-19.067c4.726,2.66,0.541,11.155-1.467,13.933
				c0.245,1.711,0.751,3.16,2.2,3.667c2.551-1.36,0.971-6.851,4.398-7.333c-1.302,1.388-0.533,4.844-0.732,7.333
				c2.621-1.29,2.396-5.426,2.934-8.8c2.454,0.968-1.4,8.246,2.2,8.067c-0.228,2.018-2.547,1.547-2.2-0.733
				c-0.757,2.114-4.008,3.293-4.4,0C226.742,137.52,226.268,138.756,225.533,139.733z M224.066,132.4
				c0.195-3.006,3.371-6.862,1.467-9.533C224.673,125.209,223.068,130.637,224.066,132.4z"/>
			<path d="M225.533,122.867c1.904,2.671-1.271,6.527-1.467,9.533C223.068,130.637,224.673,125.209,225.533,122.867z"/>
			<path d="M252.666,298.133c-43.755,0-87.512,0-131.267,0c-2.634-8.516-0.593-16.865-2.933-23.467
				c-6.22-17.547-38.221-5.893-52.8-15.398c-9.348-6.418-3.504-18.953-5.133-30.065c-0.484-3.302-3.572-5.732-4.4-8.802
				c-0.535-1.979,0.333-4.698,0-6.601c-0.543-3.106-3.236-5.1-3.667-7.333c-1.058-5.484,1.175-9.43,1.467-13.199
				c-5.515-4.509-14.955-5.091-17.6-12.468c1.148-9.604,6.349-16.434,11.733-24.2c4.316-6.226,13.54-13.591,13.933-21.267
				c0.384-7.499-5.251-10.845-4.4-20.533c0.499-5.673,3.421-13.646,5.867-21.267c6.447-20.085,13.65-37.71,27.867-49.133
				C106.124,32.515,128.578,23.11,150,21.667c38.762-2.612,78.548,5.464,101.934,28.6c9.504,9.402,14.606,21.032,22,33
				c4.941,18.68,11.687,37.878,7.332,62.333c-5.117,28.765-26.136,45.625-33.73,72.601c-1.959,6.953-3.612,15.418-4.4,23.466
				C240.964,263.803,247.459,280.111,252.666,298.133z M177.133,40c-2.721,1.396-11.213,3.29-11.732-1.467
				c-0.601-2.799,1.562-2.839,2.935-3.667c1.003-1.472-5.476,1.038-4.399,4.4c2.846,5.66,15.469,1.423,17.602,1.467
				c-5.482,1.082-1.924-6.877-2.934-10.267c-1.389,0.15-7.246-0.495-5.136,0.733c2.552-0.351,4.537-0.137,3.667,2.933
				c-0.994-0.706-8.182-1.417-6.6,0C175.408,33.414,178.104,34.875,177.133,40z M188.133,41.467
				c-1.371-0.828-3.533-0.867-2.934-3.667c2.381-0.425,3.412,0.5,5.134,0.733c7.144-0.578-4.207-0.748-5.134-2.2
				c0.613-2.107,8.458-0.789,7.334-2.2C181.363,31.098,183.907,43.743,188.133,41.467z M197.666,39.267
				c-0.064-1.003-5.275-1.003-2.934,0c2.308-0.366,2.867,1.599,4.398,0C196.152,34.144,193.098,33.732,197.666,39.267z
				 M155.133,45.133c2.19-0.531,7.848-1.4,7.333-2.2c-1.222,0-2.444,0-3.667,0c-0.299-2.878-0.284-6.071-2.933-6.6
				c0.378,2.651,3.07,5.746,1.467,8.066C155.044,43.18,153.782,47.127,155.133,45.133z M207.199,46.6
				c-0.866-0.356-1.662-0.782-2.2-1.467c-0.868-3.83,4.481-5.259,4.399-5.867c-2.479,1.172-3.129-3.112-4.399-0.733
				c1.324,1.611-1.151,5.661-2.199,7.333C204.736,45.299,208.479,48.578,207.199,46.6z M195.466,42.2
				c-10.601,0.987-0.276,2.119,2.935-1.467C196.242,40.597,196.674,42.087,195.466,42.2z M216.732,45.133
				c-1.062,1.381-1.078,3.811-2.935,4.4c-0.651-0.415-4.185-2.095-2.198-0.733c1.238,1.046,6.834,4.44,5.864,2.934
				c-1.159-3.065,0.966-12.235-3.666-10.267C215.057,42.41,216.684,42.983,216.732,45.133z M105.266,46.6
				c0.291,2.352-1.438,12.537,1.467,14.667c1.64-0.316,0.297-3.614,0.733-5.133c0.62-1.581,4.675,0.275,5.133-1.467
				c-0.62-1.581-4.675,0.275-5.133-1.466c-1.616-6.017,5.268-3.533,6.6-6.6C110.716,47.122,106.628,45.774,105.266,46.6z
				 M115.533,48.066c-2.126,12.854,3.173,14.709,12.467,13.2c-0.94-4.118,3.655-2.7,6.6-2.933c-0.205,1.671,0.177,2.756,1.467,2.933
				c2.02-4.004-0.141-12.519-3.667-15.4c-3.929,2.671-4.112,9.087-6.6,13.2c-3.263-0.574-4.401,0.977-7.333,0.733
				c-0.844-0.867-0.83-2.592-0.733-4.4c2.217-0.228,5.703,0.814,5.867-1.467c-1.502-2.335-4.806,1.381-5.867-0.733
				c-0.152-2.107,0.186-3.726,1.467-4.4c1.066-1.134,3.754-0.646,5.867-0.733C124.806,43.892,117.851,47.49,115.533,48.066z
				 M140.466,46.6c0.958,3.331,0.44,7.158-1.467,9.533c2.968,0.209,0.565,5.791,3.667,5.867c2.075-1.155-1.656-3.928,0.733-5.133
				c3.41,0.746,4.866,3.445,8.067,4.4c0.13-3.308-2.848-3.508-4.4-5.133c1.635-1.543,3.915-2.441,3.667-5.867
				C149.383,46.995,144.001,45.431,140.466,46.6z M225.533,48.8c-1.776,1.402-3.106,3.25-3.667,5.867
				c0.981,2.634,6.563,5.761,8.065,1.467c-2.224,1.296-5.354,2.239-6.601-0.733c-0.103-3.034,1.667-4.2,2.935-5.867
				c2.271-0.734,2.848,3.903,4.398,1.467c-3.044-0.714-3.188-2.698-3.667-4.4c-0.574,2.548-5.715-2.129-3.666,0
				C223.414,47.985,225.757,47.109,225.533,48.8z M235.8,57.6c-1.157,1.776-2.624,3.243-4.399,4.4
				c-0.812-0.321-3.805-3.238-2.199-1.467c0.938,1.775,6.02,6.324,5.134,5.133c-0.01-1.457-2.001-0.933-1.467-2.933
				c1.476-1.458,2.396-3.469,4.397-4.4c-0.013-1.688-3.65-5.946-3.666-2.934C235.199,55.267,235.934,56,235.8,57.6z M237.999,69.333
				c-0.044,3.114,4.444,7.379,6.601,3.667c-2.072-0.606-1.898,1.034-3.666,0.733c-3.735-2.931-1.164-7.179,2.935-8.067
				c0.438,0.798,3.688,4.05,2.198,2.2c-1.949-1.604-0.375-3.948-1.467-5.133c-1.541,2.649-2.365-1.46-3.666-1.467
				C244.652,65.59,238.621,65.381,237.999,69.333z M149.266,75.2c1.978,1.688,5.839,1.495,6.6,4.4
				c-0.972,3.749-6.779-1.01-7.333,2.2c3.943,5.004,11.136,1.521,11-2.933c-0.147-4.84-5.844-2.802-7.333-7.333
				c2.007-2.157,6.128,1.131,6.6-1.467C155.995,64.632,145.855,69.702,149.266,75.2z M160.266,68.6c0,0.733,0,1.466,0,2.2
				c1.29,0.422,4.309-0.886,4.4,0.733c0.855,3.788-1.789,11.078,1.467,12.467c0.489,0,0.979,0,1.467,0
				c1.697-2.947,0.254-9.035,0.733-13.2c1.985-0.213,5.433,1.032,4.399-2.2C170.164,67.28,162.874,67.521,160.266,68.6z M176.398,84
				c0.49,0,0.979,0,1.468,0c2.132-0.557-0.665-6.043,1.467-6.6c4.709-0.065,0.819,8.47,7.333,6.6
				c-2.211-6.615-2.352-7.088-0.732-13.934c-1.918-2.483-6.43-2.371-11-2.2C175.832,72.834,173.085,81.448,176.398,84z M188.866,84
				c2.975-0.936,10.003,2.181,9.532-2.2c-0.325-2.118-5.541,0.652-5.865-1.467c0-0.978,0-1.955,0-2.933
				c2.463-0.226,6.355,0.979,5.865-2.2c-0.325-2.118-5.541,0.652-5.865-1.466c0-0.978,0-1.956,0-2.934
				c1.84-0.604,6.314,1.426,5.865-1.467c-0.502-3.164-6.657-0.675-9.532-1.466C188.866,73.244,188.866,78.622,188.866,84z
				 M201.333,75.2c1.978,1.688,5.839,1.495,6.601,4.4c-0.973,3.749-6.779-1.01-7.334,2.2c3.942,5.004,11.137,1.521,11-2.933
				c-0.146-4.84-5.844-2.802-7.334-7.333c2.008-2.157,6.129,1.131,6.603-1.467C208.062,64.632,197.922,69.702,201.333,75.2z
				 M213.8,73.733c0.834,3.321,5.646,2.665,6.601,5.867c-0.349,3.951-7.008-1.251-6.601,2.2c3.265,4.858,9.903,1.56,10.267-2.2
				c0.49-5.081-4.353-3.478-6.601-7.333c0.499-3.154,5.046-0.078,5.867-1.467C223.111,65.006,211.643,67.976,213.8,73.733z
				 M245.333,83.267c-2.383-0.551-3.215-2.652-4.399-4.4c0.065-1.156,1.869-0.574,1.467-2.2c-1.047-0.175-1.236-1.208-2.199-1.467
				c-2.623,10.502,13.468,8.49,17.601,14.667c-0.254-2.244-3.504-8.309-2.934-6.6c-0.701,1.366,2.194,2.451,0,2.933
				c-1.636-1.788-5.459-1.386-7.333-2.933c0.66-2.76,1.574-5.269,2.933-7.333c0.421,0.649,3.024,3.254,1.468,1.467
				c0.199-2.283-4.134-6.596-2.935-5.133C249.833,75.659,247.58,80.683,245.333,83.267z M101.6,106.733
				c2.728,0.283,1.357-3.532,3.667-3.667c5.179-1.512,4.562,2.771,7.333,3.667c-1.31-5.046-2.063-10.648-5.867-13.2
				C104.646,97.557,103.034,102.056,101.6,106.733z M116.266,106.733c0.471-2.952-0.953-7.798,0.733-9.534
				c2.39,3.233,3.48,7.764,7.333,9.534c0.848-2.813,1.954-11.546-0.733-13.2c-1.914,1.508,0.517,7.361-1.467,8.8
				c-2.306-3.072-2.672-8.083-7.333-8.8C115.515,97.707,113.213,104.897,116.266,106.733z M130.2,100.867
				c-0.432,1.811-4.359,3.896-2.2,5.867c1.259-1.675,2.162-3.705,3.667-5.133c1.617,1.806,2.044,4.8,5.133,5.133
				c-0.49-3.177-3.394-3.94-3.667-7.333c1.17-2.008,2.737-3.618,3.667-5.867c-3.649-0.471-2.619,3.736-5.133,4.4
				c-1.497-1.436-1.536-4.33-4.4-4.4C127.37,96.852,130.529,97.115,130.2,100.867z M139,106.733c3.498-0.248,3.498-12.953,0-13.2
				C139,97.933,139,102.333,139,106.733z M144.133,106.733c2.444,0,4.889,0,7.333,0c0.902-3.347-4.958,0.068-5.133-2.2
				c0-1.467,0-2.933,0-4.4c1.289-0.422,4.309,0.886,4.4-0.733c-0.509-1.447-4.092,0.181-4.4-1.467c0-0.978,0-1.956,0-2.933
				c1.666-0.534,5.721,1.321,5.133-1.467c-2.445,0-4.889,0-7.333,0C144.133,97.933,144.133,102.333,144.133,106.733z M156.6,95.733
				c0,3.667,0,7.333,0,11c4.279-0.365,1.325-7.964,2.2-11.733c1.512-0.444,5.095,1.184,4.4-1.467c-3.667,0-7.333,0-11,0
				C151.165,96.768,156.587,93.545,156.6,95.733z M167.6,106.733c3.399-2.956,3.002-9.71,5.866-13.2
				c-2.928,0.739-2.937,4.397-5.133,5.867c-1.617-1.805-1.224-5.622-4.399-5.867C164.73,98.357,168.742,99.968,167.6,106.733z
				 M194.732,109.667c4.002,2.037,6.631-2.198,5.134-5.867C196.283,99.992,191.98,105.15,194.732,109.667z M237.999,105.267
				c1.405,1.283,4.517,0.862,4.399,3.667c-2.373,0.417-3.688-0.222-4.399-1.466c0.077,3.722,5.724,3.501,5.134-0.733
				c-1.184-1.017-3.779-0.62-4.4-2.2c0.156-0.823,0.814-1.142,1.469-1.467c0.977-0.109,2.214,2.982,2.934,0.733
				C241.73,101.77,237.904,101.956,237.999,105.267z M244.6,106c1.277,0.678,3.938-0.025,3.666,2.2
				c-0.188,1.716-3.222,0.423-3.666,0c0.375,3.593,4.977,1.872,5.133-0.733c-0.955-1.733-4.653-0.722-4.397-3.667
				c0.733,0.002,0.872-0.594,1.467-0.733c1.048,0.176,1.236,1.208,2.199,1.467C248.921,101.238,243.314,101.951,244.6,106z
				 M188.133,109.667c1.289-0.422,4.309,0.886,4.4-0.733c-5.574,2.151-0.688-6.158-4.4-5.867
				C188.133,105.267,188.133,107.467,188.133,109.667z M207.199,109.667c-0.199-1.57,0.568-7.823-0.733-5.867
				c-0.422,1.289,0.888,4.309-0.733,4.4c-1.428-1.504-1.021-4.843-3.666-5.133c0.199,1.57-0.566,7.823,0.733,5.867
				c0.4-1.065-0.856-3.79,0.733-3.667C204.816,106.672,204.396,109.782,207.199,109.667z M209.398,109.667
				c1.289-0.422,4.31,0.886,4.399-0.733c-6.753,1.089-0.688-3.296-0.731-2.933c-0.142,1.064-3.023-0.274-2.936-1.467
				c0.146-1.954,5.078,0.425,2.936-1.467c-1.225,0-2.444,0-3.668,0C209.398,105.267,209.398,107.467,209.398,109.667z
				 M215.999,109.667c1.065-0.401,3.791,0.857,3.667-0.733c-5.104,2.622-1.641-7.111-3.667-5.133
				C215.999,105.755,215.999,107.711,215.999,109.667z M229.934,109.667c-0.199-1.57,0.566-7.823-0.732-5.867
				c-0.424,1.289,0.887,4.309-0.733,4.4c-1.429-1.504-1.022-4.843-3.666-5.133c0.198,1.57-0.567,7.823,0.733,5.867
				c0.398-1.065-0.857-3.79,0.73-3.667C227.55,106.672,227.129,109.782,229.934,109.667z M232.133,109.667
				c1.289-0.422,4.309,0.886,4.4-0.733c-6.754,1.089-0.688-3.296-0.733-2.933c-0.14,1.064-3.022-0.274-2.934-1.467
				c0.147-1.954,5.077,0.425,2.934-1.467c-1.223,0-2.444,0-3.667,0C232.133,105.267,232.133,107.467,232.133,109.667z
				 M227.732,136.8c0.393,3.293,3.644,2.114,4.398,0c-0.347,2.28,1.975,2.751,2.2,0.733c-3.603,0.179,0.254-7.099-2.2-8.067
				c-0.535,3.374-0.312,7.511-2.936,8.8c0.199-2.49-0.565-5.945,0.734-7.333c-3.43,0.483-1.85,5.974-4.398,7.333
				c-1.449-0.507-1.955-1.956-2.2-3.667c2.008-2.778,6.19-11.273,1.467-13.933c-1.022,6.104-5.599,16.076,0.733,19.067
				C226.268,138.756,226.742,137.52,227.732,136.8z M135.333,131.667c0.569,0.164,1.446,0.02,1.466,0.733
				c1.866-0.089,2.844-1.067,2.934-2.934c-5.606,0.615,2.561-8.044-1.467-8.066C137.238,124.771,135.652,127.586,135.333,131.667z
				 M215.266,121.4c-4.274-0.824-12.884,0.614-14.666,2.2c2.766,0.564,3.506-0.895,5.866-0.733
				c-0.174,3.354,0.011,6.239-1.467,7.333c-3.365,2.494-1.001-1.297,0.733,0.733c0.146,0.172-0.103,4.377,0,8.067
				c3.746-1.177-0.084-5.941,1.467-8.067c1.629-2.23,2.922,2.456,2.934-0.733c-0.002,0.572-2.886-0.654-2.934-0.733
				c-0.979-1.637,2.129-3.953,0.732-5.867C209.382,121.781,219.334,122.183,215.266,121.4z M120.666,128
				c3.451,3.929,9.897-2.199,8.067-5.867C123.595,121.336,120.147,125.515,120.666,128z M150,133.867
				c1.2-2.223,1.748-5.097,3.667-6.6c-0.073,3.25,0.869,5.487,3.667,5.867c-1.026-2.886-2.022-5.8-2.934-8.8
				c-2.394-0.194-1.554,2.846-3.667,2.934c-0.325-1.386,0.998-4.42-1.467-3.667C149.739,126.793,148.31,131.89,150,133.867z
				 M166.866,125.066c-1.011,0.032-1.61-0.345-2.2-0.733c0.707,3.449,0.684,7.627,4.4,8.067c1.375-1.292,1.558-3.064,2.934-0.733
				c1.878-2.138-0.12-4.336,2.199-5.133c0.503,2.431,2.543,3.324,5.134,3.667c-1.999-2.4-3.463-5.337-7.333-5.867
				c-0.115,0.863,0.126,2.082-0.732,2.2c-1.097-0.86-0.865-3.047-2.935-2.934c-0.073,2.078,2.905,4.85,1.467,5.867
				C168.736,129.351,165.79,129.223,166.866,125.066z M186.666,130.2c-0.585,2.104-4.917,0.461-4.398,3.667
				c3.943,0.033,5.914-1.908,6.601-5.133c-2.972-2.289-7.366-5.806-11.733-4.4c-0.363,3.543,2.629,3.729,5.866,3.667
				c0.127-3.302-3.792,1.029-3.666-2.934C183.008,125.547,185.379,127.332,186.666,130.2z M134.6,129.466
				c-1.819,0.108-3.559,0.137-3.667-1.466c1.989-0.701,5.057-0.322,4.4-3.667C123.583,122.051,130.208,137.333,134.6,129.466z
				 M140.466,130.933c1.837-0.126,1.78,1.642,2.933,2.2c3.854-0.365,5.935-4.529,4.4-8.067
				C143.29,122.737,139.894,125.943,140.466,130.933z M158.066,124.333c-0.234,1.722-1.159,2.753-0.733,5.133
				c0.956,0.415,4.656,3.735,4.399,0.733c-1.793-0.357-4.783-3.261-1.466-4.4c2.739,2.406,4.433,9.729,2.933,13.934
				c-2.837,0.812-2.608-2.592-4.4-0.733c-0.428,3.851,2.181,4.663,5.133,5.133C166.082,138.199,167.062,123.689,158.066,124.333z
				 M239.466,139c1.146-3.321,2.571,0.505,4.4,0.733c2.956-4.698,2.334-5.32-0.733-0.733c-1.877-1.553,1.379-6.185-1.467-2.934
				c0.285-1.915,0.377-4.023,1.467-5.133c0.125,1.097-0.262,2.707,0.733,2.934c0.265-2.542,1.723-4.767-2.2-4.4
				c-0.844,3.068-0.393,7.43-2.934,8.8c0-2.444,0-4.889,0-7.333c-2.383,0.183-1.717-2.682-2.935-3.667
				c0.267,5.361-3.213,14.317,1.468,3.667C237.338,134.283,236.531,138.512,239.466,139z M218.934,137.533
				c0.205,1.7,1.959,1.686,2.935,0.733c0.03-0.78-0.347-1.862-0.733-0.733c-0.16,0.571-0.613,0.853-1.467,0.733
				c-1.043-3.286,1.979-6.277,0-8.067c-1.506,2.161,0.152,7.488-2.936,8.067c-0.517-4.655,1.932-7.758-2.197-8.8
				c-1.682,2.346-3.044,6.855-1.469,10.267C215.973,136.9,216.486,139.87,218.934,137.533z"/>
			<path fill="#FFFFFF" d="M135.333,124.333c0.656,3.345-2.412,2.966-4.4,3.667c0.108,1.603,1.848,1.574,3.667,1.466
				C130.208,137.333,123.583,122.051,135.333,124.333z"/>
			<path fill="#FFFFFF" d="M237.266,130.933c-4.679,10.651-1.199,1.694-1.466-3.667c1.216,0.984,0.55,3.85,2.933,3.667
				c0,2.444,0,4.889,0,7.333c2.541-1.37,2.092-5.732,2.936-8.8c3.923-0.367,2.465,1.858,2.2,4.4
				c-0.995-0.227-0.608-1.836-0.733-2.934c-1.09,1.11-1.182,3.219-1.467,5.133c2.846-3.251-0.41,1.381,1.467,2.934
				c3.067-4.586,3.689-3.964,0.733,0.733c-1.829-0.228-3.255-4.054-4.4-0.733C236.531,138.512,237.338,134.283,237.266,130.933z"/>
			<path fill="#FFFFFF" d="M213.066,139.733c-1.578-3.412-0.213-7.921,1.467-10.267c4.129,1.042,1.683,4.146,2.199,8.8
				c3.088-0.579,1.428-5.906,2.934-8.067c1.979,1.79-1.043,4.781,0,8.067c0.854,0.119,1.305-0.162,1.467-0.733
				c0.389-1.129,0.766-0.047,0.733,0.733c-0.976,0.952-2.729,0.966-2.935-0.733C216.486,139.87,215.973,136.9,213.066,139.733z
				 M214.533,130.2c-0.036,2.678-3.195,7.454,0,8.8C214.918,136.201,217.467,132.036,214.533,130.2z"/>
			<path fill="#FFFFFF" d="M128.733,122.133c1.83,3.668-4.616,9.796-8.067,5.867C120.147,125.515,123.595,121.336,128.733,122.133z
				 M121.399,127.267c1.267,1.278,4.534,0.812,5.133-0.733C123.924,127.153,122.139,124.41,121.399,127.267z"/>
		</g>
	</g>
	<g id="Layer_2_copy">
		<g display="inline">
			<path fill="#FFFFFF" d="M14.349,7c97.532,0,195.069,0,292.6,0c0,102.912,0,205.82,0,308.733c-97.777,0-195.556,0-293.333,0
				c0-102.179,0-204.354,0-306.533C13.553,8.159,13.495,7.124,14.349,7z M242.416,241.666c0.787-8.048,2.441-16.514,4.4-23.466
				c7.596-26.976,28.613-43.836,33.73-72.601c4.354-24.455-2.391-43.653-7.334-62.333c-7.395-11.968-12.496-23.598-22-33
				c-23.385-23.136-63.17-31.212-101.933-28.6C127.86,23.11,105.407,32.515,90.616,44.4C76.4,55.823,69.196,73.448,62.749,93.533
				c-2.446,7.621-5.368,15.593-5.867,21.267c-0.852,9.688,4.784,13.035,4.4,20.533c-0.393,7.675-9.617,15.041-13.933,21.267
				c-5.384,7.767-10.585,14.597-11.733,24.2c2.645,7.377,12.085,7.959,17.6,12.468c-0.292,3.771-2.525,7.715-1.467,13.199
				c0.431,2.233,3.124,4.227,3.667,7.333c0.333,1.9-0.535,4.619,0,6.601c0.828,3.067,3.917,5.5,4.4,8.802
				c1.629,11.112-4.214,23.647,5.133,30.065c14.579,9.508,46.58-2.146,52.8,15.398c2.34,6.602,0.299,14.951,2.933,23.467
				c43.755,0,87.511,0,131.267,0C246.742,280.111,240.246,263.803,242.416,241.666z"/>
			<path fill="#FFFFFF" d="M197.682,40.733c-3.211,3.585-13.533,2.454-2.934,1.467C195.957,42.087,195.525,40.597,197.682,40.733z"
				/>
			<path fill="#FFFFFF" d="M113.349,46.6c-1.333,3.067-8.216,0.583-6.6,6.6c0.458,1.741,4.514-0.114,5.133,1.466
				c-0.458,1.742-4.514-0.114-5.133,1.467c-0.437,1.519,0.906,4.817-0.733,5.133c-2.904-2.129-1.176-12.314-1.467-14.667
				C105.911,45.774,109.999,47.122,113.349,46.6z"/>
			<path fill="#FFFFFF" d="M124.349,48.066c-2.113,0.088-4.801-0.4-5.867,0.733c-1.281,0.675-1.619,2.293-1.467,4.4
				c1.061,2.114,4.365-1.602,5.867,0.733c-0.164,2.281-3.65,1.239-5.867,1.467c-0.097,1.808-0.111,3.533,0.733,4.4
				c2.932,0.244,4.07-1.307,7.333-0.733c2.487-4.112,2.671-10.529,6.6-13.2c3.526,2.881,5.687,11.396,3.667,15.4
				c-1.29-0.177-1.672-1.262-1.467-2.933c-2.945,0.233-7.541-1.185-6.6,2.933c-9.293,1.509-14.593-0.347-12.467-13.2
				C117.133,47.49,124.088,43.892,124.349,48.066z M128.016,56.867c2.314,0.359,2.589-1.322,5.133-0.733
				c-0.163-3.015,0.593-6.949-2.2-7.333C130.078,51.596,129,54.184,128.016,56.867z"/>
			<path fill="#FFFFFF" d="M150.016,50.267c0.248,3.426-2.032,4.324-3.667,5.867c1.552,1.625,4.53,1.826,4.4,5.133
				c-3.201-0.955-4.657-3.654-8.067-4.4c-2.39,1.206,1.341,3.979-0.733,5.133c-3.102-0.076-0.698-5.657-3.667-5.867
				c1.907-2.375,2.425-6.203,1.467-9.533C143.284,45.431,148.666,46.995,150.016,50.267z M141.949,54.667
				c4.041,0.374,6.129-1.205,5.867-5.133c-1.63-0.57-2.859-1.541-5.133-1.467C143.075,50.903,141.374,51.646,141.949,54.667z"/>
			<path d="M142.682,48.066c2.274-0.074,3.503,0.896,5.133,1.467c0.262,3.929-1.826,5.507-5.867,5.133
				C141.374,51.646,143.075,50.903,142.682,48.066z"/>
			<path d="M130.949,48.8c2.793,0.385,2.038,4.318,2.2,7.333c-2.544-0.588-2.819,1.092-5.133,0.733
				C129,54.184,130.078,51.596,130.949,48.8z"/>
			<path fill="#FFFFFF" d="M158.082,70.066c-0.472,2.598-4.592-0.69-6.6,1.467c1.489,4.531,7.186,2.493,7.333,7.333
				c0.136,4.455-7.057,7.937-11,2.933c0.555-3.21,6.362,1.549,7.333-2.2c-0.761-2.905-4.622-2.712-6.6-4.4
				C145.138,69.702,155.278,64.632,158.082,70.066z"/>
			<path fill="#FFFFFF" d="M172.016,68.6c1.031,3.231-2.414,1.987-4.398,2.2c-0.479,4.166,0.965,10.253-0.732,13.2
				c-0.488,0-0.979,0-1.467,0c-3.256-1.389-0.609-8.679-1.467-12.467c-0.094-1.62-3.111-0.312-4.4-0.733c0-0.733,0-1.467,0-2.2
				C162.156,67.521,169.447,67.28,172.016,68.6z"/>
			<path fill="#FFFFFF" d="M174.215,67.867c4.572-0.171,9.084-0.283,11,2.2c-1.617,6.846-1.477,7.319,0.734,13.934
				c-6.514,1.87-2.625-6.665-7.334-6.6c-2.131,0.557,0.666,6.043-1.467,6.6c-0.488,0-0.979,0-1.467,0
				C172.367,81.448,175.115,72.834,174.215,67.867z M177.883,75.2c2.975,0.287,4.238-1.138,3.666-4.4c-1.223,0-2.445,0-3.666,0
				C177.883,72.267,177.883,73.733,177.883,75.2z"/>
			<path fill="#FFFFFF" d="M188.148,67.867c2.875,0.792,9.031-1.698,9.533,1.466c0.447,2.893-4.025,0.863-5.865,1.467
				c0,0.978,0,1.956,0,2.934c0.324,2.118,5.539-0.652,5.865,1.466c0.488,3.179-3.402,1.975-5.865,2.2c0,0.978,0,1.956,0,2.933
				c0.324,2.119,5.539-0.651,5.865,1.467c0.471,4.381-6.561,1.264-9.533,2.2C188.148,78.622,188.148,73.244,188.148,67.867z"/>
			<path fill="#FFFFFF" d="M210.148,70.066c-0.473,2.598-4.592-0.69-6.602,1.467c1.49,4.531,7.188,2.493,7.334,7.333
				c0.137,4.455-7.061,7.937-11,2.933c0.557-3.21,6.361,1.549,7.332-2.2c-0.76-2.905-4.621-2.712-6.602-4.4
				C197.205,69.702,207.344,64.632,210.148,70.066z"/>
			<path fill="#FFFFFF" d="M222.615,70.8c-0.822,1.389-5.367-1.688-5.867,1.467c2.248,3.856,7.092,2.252,6.602,7.333
				c-0.363,3.759-7.002,7.058-10.268,2.2c-0.408-3.451,6.252,1.751,6.6-2.2c-0.953-3.202-5.766-2.546-6.6-5.867
				C210.924,67.976,222.395,65.006,222.615,70.8z"/>
			<path d="M177.883,70.8c1.221,0,2.443,0,3.666,0c0.572,3.262-0.691,4.687-3.666,4.4C177.883,73.733,177.883,72.267,177.883,70.8z"
				/>
			<path fill="#FFFFFF" d="M106.016,93.533c3.803,2.552,4.557,8.154,5.867,13.2c-2.771-0.896-2.155-5.179-7.333-3.667
				c-2.31,0.135-0.939,3.95-3.667,3.667C102.316,102.056,103.928,97.557,106.016,93.533z M104.549,101.6c1.222,0,2.444,0,3.667,0
				c0.02-2.464-1.01-3.879-2.2-5.133C106.136,98.787,104.066,98.917,104.549,101.6z"/>
			<path fill="#FFFFFF" d="M114.083,93.533c4.661,0.717,5.027,5.728,7.333,8.8c1.984-1.438-0.447-7.292,1.467-8.8
				c2.687,1.654,1.581,10.387,0.733,13.2c-3.853-1.77-4.944-6.301-7.333-9.534c-1.687,1.736-0.263,6.582-0.733,9.534
				C112.496,104.897,114.798,97.707,114.083,93.533z"/>
			<path fill="#FFFFFF" d="M126.549,93.533c2.864,0.07,2.903,2.964,4.4,4.4c2.515-0.664,1.484-4.871,5.133-4.4
				c-0.929,2.249-2.497,3.858-3.667,5.867c0.273,3.394,3.176,4.157,3.667,7.333c-3.089-0.333-3.517-3.328-5.133-5.133
				c-1.504,1.428-2.408,3.458-3.667,5.133c-2.159-1.971,1.769-4.056,2.2-5.867C129.812,97.115,126.652,96.852,126.549,93.533z"/>
			<path fill="#FFFFFF" d="M138.282,93.533c3.498,0.247,3.498,12.953,0,13.2C138.282,102.333,138.282,97.933,138.282,93.533z"/>
			<path fill="#FFFFFF" d="M143.416,93.533c2.444,0,4.889,0,7.333,0c0.588,2.788-3.468,0.933-5.133,1.467c0,0.978,0,1.956,0,2.933
				c0.308,1.647,3.891,0.02,4.4,1.467c-0.091,1.62-3.111,0.312-4.4,0.733c0,1.467,0,2.933,0,4.4c0.176,2.269,6.035-1.146,5.133,2.2
				c-2.445,0-4.889,0-7.333,0C143.416,102.333,143.416,97.933,143.416,93.533z"/>
			<path fill="#FFFFFF" d="M151.482,93.533c3.667,0,7.333,0,11,0c0.693,2.65-2.891,1.023-4.4,1.467
				c-0.875,3.77,2.08,11.368-2.2,11.733c0-3.667,0-7.333,0-11C155.87,93.545,150.448,96.768,151.482,93.533z"/>
			<path fill="#FFFFFF" d="M163.215,93.533c3.178,0.245,2.783,4.062,4.4,5.867c2.197-1.469,2.205-5.128,5.133-5.867
				c-2.865,3.49-2.467,10.244-5.865,13.2C168.025,99.968,164.014,98.357,163.215,93.533z"/>
			<path d="M106.016,96.467c1.19,1.254,2.22,2.669,2.2,5.133c-1.223,0-2.445,0-3.667,0
				C104.066,98.917,106.136,98.787,106.016,96.467z"/>
			<path fill="#FFFFFF" d="M187.416,103.066c3.713-0.291-1.174,8.018,4.4,5.867c-0.092,1.62-3.111,0.312-4.4,0.733
				C187.416,107.467,187.416,105.267,187.416,103.066z"/>
			<path d="M195.482,103.066c3.02-0.384,3.73,3.968,2.199,5.867c-0.979,0-1.955,0-2.936,0
				C193.213,107.311,194.174,104.049,195.482,103.066z"/>
			<path fill="#FFFFFF" d="M208.682,103.066c1.223,0,2.445,0,3.668,0c2.146,1.892-2.787-0.487-2.934,1.467
				c-0.09,1.193,2.793,2.531,2.934,1.467c0.047-0.363-6.02,4.022,0.732,2.933c-0.092,1.62-3.111,0.312-4.4,0.733
				C208.682,107.467,208.682,105.267,208.682,103.066z"/>
			<path fill="#FFFFFF" d="M215.281,103.8c2.027-1.978-1.436,7.755,3.668,5.133c0.123,1.59-2.602,0.333-3.668,0.733
				C215.281,107.711,215.281,105.755,215.281,103.8z"/>
			<path fill="#FFFFFF" d="M231.416,103.066c1.223,0,2.443,0,3.666,0c2.145,1.892-2.785-0.487-2.934,1.467
				c-0.09,1.193,2.795,2.531,2.934,1.467c0.047-0.363-6.02,4.022,0.734,2.933c-0.092,1.62-3.111,0.312-4.4,0.733
				C231.416,107.467,231.416,105.267,231.416,103.066z"/>
			<path fill="#FFFFFF" d="M137.549,121.4c4.028,0.022-4.139,8.682,1.467,8.066c-0.089,1.866-1.067,2.844-2.934,2.934
				c-0.02-0.713-0.897-0.569-1.466-0.733C134.935,127.586,136.521,124.771,137.549,121.4z"/>
			<path fill="#FFFFFF" d="M207.215,123.6c1.396,1.914-1.713,4.229-0.732,5.867c0.047,0.08,2.934,1.305,2.936,0.733
				c-0.014,3.189-1.307-1.497-2.936,0.733c-1.551,2.125,2.279,6.89-1.467,8.067c-0.102-3.689,0.146-7.895,0-8.067
				c-1.732-2.031-4.1,1.76-0.732-0.733c1.477-1.094,1.293-3.979,1.467-7.333c-2.359-0.162-3.104,1.297-5.865,0.733
				c1.781-1.585,10.391-3.023,14.666-2.2C218.617,122.183,208.664,121.781,207.215,123.6z"/>
			<path fill="#FFFFFF" d="M148.549,123.6c2.464-0.753,1.142,2.281,1.467,3.667c2.112-0.088,1.273-3.127,3.667-2.934
				c0.911,3,1.908,5.915,2.934,8.8c-2.798-0.38-3.74-2.616-3.667-5.867c-1.918,1.503-2.467,4.377-3.667,6.6
				C147.592,131.89,149.022,126.793,148.549,123.6z"/>
			<path fill="#FFFFFF" d="M169.082,129.466c1.439-1.017-1.539-3.789-1.467-5.867c2.07-0.114,1.838,2.073,2.934,2.934
				c0.859-0.118,0.619-1.337,0.734-2.2c3.869,0.53,5.334,3.466,7.332,5.867c-2.59-0.342-4.631-1.236-5.133-3.667
				c-2.32,0.797-0.322,2.995-2.199,5.133c-1.377-2.331-1.559-0.558-2.934,0.733c-3.719-0.439-3.693-4.618-4.4-8.067
				c0.59,0.388,1.189,0.765,2.199,0.733C165.072,129.223,168.02,129.351,169.082,129.466z"/>
			<path fill="#FFFFFF" d="M178.615,125.066c-0.125,3.963,3.793-0.368,3.666,2.934c-3.238,0.062-6.23-0.124-5.865-3.667
				c4.367-1.405,8.762,2.112,11.732,4.4c-0.688,3.225-2.654,5.167-6.602,5.133c-0.52-3.206,3.812-1.563,4.398-3.667
				C184.662,127.332,182.291,125.547,178.615,125.066z"/>
			<path fill="#FFFFFF" d="M147.082,125.066c1.535,3.538-0.546,7.702-4.4,8.067c-1.153-0.558-1.096-2.327-2.933-2.2
				C139.177,125.943,142.572,122.737,147.082,125.066z M141.949,130.2c2.612,0.168,3.834-1.055,3.667-3.667
				c-0.992-0.23-1.401-1.044-2.934-0.733C141.747,127.707,141.073,128.012,141.949,130.2z"/>
			<path fill="#FFFFFF" d="M163.215,144.133c-2.952-0.47-5.561-1.283-5.133-5.133c1.792-1.859,1.562,1.546,4.4,0.733
				c1.5-4.205-0.195-11.527-2.936-13.934c-3.316,1.139-0.327,4.042,1.467,4.4c0.256,3.001-3.444-0.318-4.4-0.733
				c-0.425-2.38,0.5-3.412,0.733-5.133C166.346,123.689,165.365,138.199,163.215,144.133z"/>
			<path d="M125.815,126.533c-0.6,1.545-3.866,2.012-5.133,0.733C121.421,124.41,123.207,127.153,125.815,126.533z"/>
			<path d="M142.682,125.8c1.533-0.311,1.942,0.503,2.934,0.733c0.167,2.612-1.055,3.834-3.667,3.667
				C141.073,128.012,141.747,127.707,142.682,125.8z"/>
			<path d="M213.816,139c-3.195-1.346-0.037-6.122,0-8.8C216.75,132.036,214.201,136.201,213.816,139z"/>
			<path fill="#FFFFFF" d="M169.816,34.133c-1.582-1.417,5.604-0.706,6.6,0c0.869-3.07-1.117-3.284-3.668-2.933
				c-2.111-1.228,3.748-0.583,5.135-0.733c1.01,3.389-2.549,11.349,2.934,10.267c-2.133-0.044-14.756,4.193-17.602-1.467
				c-1.074-3.362,5.404-5.872,4.4-4.4c-1.373,0.828-3.533,0.867-2.934,3.667c0.521,4.757,9.014,2.863,11.732,1.467
				C177.385,34.875,174.691,33.414,169.816,34.133z"/>
			<path fill="#FFFFFF" d="M191.816,34.133c1.123,1.412-6.721,0.093-7.334,2.2c0.926,1.452,12.273,1.622,5.133,2.2
				c-1.721-0.234-2.752-1.158-5.133-0.733c-0.602,2.8,1.561,2.839,2.934,3.667C183.189,43.743,180.646,31.098,191.816,34.133z"/>
			<path fill="#FFFFFF" d="M198.416,39.267c-1.533,1.599-2.094-0.366-4.4,0c-2.342-1.003,2.869-1.003,2.936,0
				C192.379,33.732,195.436,34.144,198.416,39.267z"/>
			<path fill="#FFFFFF" d="M156.616,44.4c1.604-2.32-1.089-5.416-1.467-8.066c2.649,0.528,2.634,3.721,2.933,6.6
				c1.222,0,2.445,0,3.666,0c0.514,0.8-5.143,1.669-7.333,2.2C153.065,47.127,154.327,43.18,156.616,44.4z"/>
			<path fill="#FFFFFF" d="M202.082,45.867c1.049-1.672,3.523-5.722,2.199-7.333c1.271-2.379,1.922,1.905,4.4,0.733
				c0.082,0.607-5.27,2.037-4.4,5.867c0.539,0.685,1.334,1.111,2.201,1.467C207.762,48.578,204.02,45.299,202.082,45.867z"/>
			<path fill="#FFFFFF" d="M213.082,41.467c4.631-1.968,2.506,7.201,3.666,10.267c0.969,1.507-4.625-1.887-5.865-2.934
				c-1.984-1.362,1.547,0.319,2.199,0.733c1.855-0.589,1.871-3.019,2.934-4.4C215.965,42.983,214.34,42.41,213.082,41.467z"/>
			<path fill="#FFFFFF" d="M222.615,46.6c-2.049-2.129,3.092,2.548,3.666,0c0.48,1.702,0.623,3.686,3.668,4.4
				c-1.553,2.436-2.129-2.201-4.4-1.467c-1.266,1.667-3.033,2.833-2.934,5.867c1.248,2.972,4.377,2.029,6.6,0.733
				c-1.502,4.294-7.084,1.167-8.066-1.467c0.562-2.617,1.893-4.464,3.668-5.867C225.039,47.109,222.697,47.985,222.615,46.6z"/>
			<path fill="#FFFFFF" d="M232.883,55.4c0.014-3.013,3.652,1.246,3.666,2.934c-2.002,0.931-2.924,2.942-4.4,4.4
				c-0.531,2,1.457,1.476,1.469,2.933c0.885,1.191-4.195-3.358-5.135-5.133c-1.604-1.771,1.391,1.146,2.199,1.467
				c1.777-1.157,3.244-2.624,4.4-4.4C235.215,56,234.482,55.267,232.883,55.4z"/>
			<path fill="#FFFFFF" d="M240.215,61.267c1.301,0.006,2.125,4.116,3.668,1.467c1.09,1.186-0.484,3.529,1.467,5.133
				c1.49,1.85-1.762-1.402-2.201-2.2c-4.096,0.888-6.67,5.136-2.934,8.067c1.768,0.3,1.594-1.339,3.668-0.733
				c-2.156,3.712-6.645-0.553-6.602-3.667C237.904,65.381,243.936,65.59,240.215,61.267z"/>
			<path fill="#FFFFFF" d="M248.281,72.267c-1.199-1.463,3.135,2.85,2.934,5.133c1.559,1.787-1.047-0.818-1.467-1.467
				c-1.357,2.065-2.27,4.574-2.932,7.333c1.873,1.547,5.697,1.146,7.332,2.933c2.197-0.482-0.701-1.567,0-2.933
				c-0.57-1.709,2.68,4.356,2.934,6.6c-4.133-6.177-20.223-4.165-17.6-14.667c0.963,0.259,1.15,1.292,2.199,1.467
				c0.402,1.626-1.4,1.044-1.469,2.2c1.188,1.748,2.02,3.849,4.398,4.4C246.863,80.683,249.115,75.659,248.281,72.267z"/>
			<path fill="#FFFFFF" d="M199.148,103.8c1.498,3.669-1.131,7.903-5.133,5.867C191.264,105.15,195.566,99.992,199.148,103.8z
				 M194.748,108.933c0.979,0,1.957,0,2.934,0c1.533-1.899,0.82-6.25-2.199-5.867C194.174,104.049,193.213,107.311,194.748,108.933z
				"/>
			<path fill="#FFFFFF" d="M242.416,103.8c-0.721,2.249-1.957-0.843-2.934-0.733c-0.652,0.325-1.312,0.644-1.467,1.467
				c0.617,1.58,3.217,1.183,4.398,2.2c0.588,4.234-5.059,4.455-5.137,0.733c0.715,1.244,2.027,1.884,4.4,1.466
				c0.115-2.804-2.994-2.383-4.4-3.667C237.188,101.956,241.014,101.77,242.416,103.8z"/>
			<path fill="#FFFFFF" d="M248.281,104.533c-0.963-0.259-1.152-1.291-2.199-1.467c-0.594,0.14-0.73,0.736-1.467,0.733
				c-0.256,2.945,3.443,1.934,4.4,3.667c-0.158,2.605-4.76,4.326-5.135,0.733c0.443,0.423,3.479,1.716,3.666,0
				c0.271-2.225-2.389-1.522-3.666-2.2C242.598,101.951,248.203,101.238,248.281,104.533z"/>
			<path fill="#FFFFFF" d="M202.816,105.267c-1.592-0.124-0.334,2.601-0.734,3.667c-1.301,1.957-0.533-4.296-0.732-5.867
				c2.645,0.291,2.236,3.629,3.666,5.133c1.619-0.091,0.312-3.111,0.732-4.4c1.303-1.957,0.535,4.297,0.734,5.867
				C203.678,109.782,204.1,106.672,202.816,105.267z"/>
			<path fill="#FFFFFF" d="M225.549,105.267c-1.59-0.124-0.332,2.601-0.732,3.667c-1.303,1.957-0.533-4.296-0.732-5.867
				c2.645,0.291,2.236,3.629,3.666,5.133c1.621-0.091,0.312-3.111,0.732-4.4c1.303-1.957,0.533,4.297,0.732,5.867
				C226.412,109.782,226.832,106.672,225.549,105.267z"/>
			<path fill="#FFFFFF" d="M224.816,139.733c-6.332-2.991-1.758-12.963-0.734-19.067c4.727,2.66,0.541,11.155-1.467,13.933
				c0.246,1.711,0.752,3.16,2.201,3.667c2.551-1.36,0.971-6.851,4.396-7.333c-1.301,1.388-0.531,4.844-0.73,7.333
				c2.621-1.29,2.396-5.426,2.934-8.8c2.453,0.968-1.4,8.246,2.199,8.067c-0.227,2.018-2.547,1.547-2.199-0.733
				c-0.758,2.114-4.008,3.293-4.4,0C226.025,137.52,225.551,138.756,224.816,139.733z M223.35,132.4
				c0.195-3.006,3.371-6.862,1.467-9.533C223.955,125.209,222.352,130.637,223.35,132.4z"/>
			<path d="M224.816,122.867c1.904,2.671-1.271,6.527-1.467,9.533C222.352,130.637,223.955,125.209,224.816,122.867z"/>
			<path fill="#3399FF" d="M240.191,298.368c-43.756,0-75.433,1.467-119.188,1.467c-2.634-8.517-0.593-16.864-2.933-23.467
				c-6.22-17.548-38.221-5.892-52.8-15.397c-9.348-6.419-3.504-18.953-5.133-30.065c-0.484-3.302-3.572-5.732-4.4-8.802
				c-0.535-1.979,0.333-4.698,0-6.601c-0.543-3.106-3.236-5.101-3.667-7.334c-1.058-5.483,2.959-10.696,3.251-14.467
				c-5.515-4.509-14.355-7.289-17-14.666c1.148-9.604,3.965-12.968,9.349-20.734c4.316-6.226,9.431-14.927,11.318-22.377
				c2.134-8.426-2.138-15.408-1.286-25.096c0.499-5.673,2.922-7.973,5.368-15.593c6.447-20.085,13.65-37.71,27.867-49.133
				c14.791-11.885,37.245-21.29,58.667-22.733c38.764-2.612,78.548,5.464,101.934,28.6c9.504,9.402,15.886,18.697,22,33
				c8.731,17.349,11.687,37.878,7.334,62.333c-5.119,28.765-26.138,45.625-33.731,72.601c-1.959,6.953-3.613,15.418-4.399,23.465
				C240.568,265.505,238.077,280.346,240.191,298.368z"/>
		</g>
	</g>
	<g display="inline">
		<path fill="#3399FF" d="M241.79,307.838c-47.705,0-67.084,0-114.79,0c-3.549-11.479,7.833-23.265,2.667-37.838
			c-6.781-19.131-55.438,5.032-71.333-5.333c-10.191-6.998,1.687-19.821-0.089-31.938c-0.528-3.598-3.895-6.25-4.797-9.596
			c-0.583-2.158,0.362-5.123,0-7.195c-0.592-3.387-3.528-5.559-3.998-7.996c-1.153-5.979,3.227-11.662,3.544-15.771
			c-6.014-4.916-28.18-12.794-31.063-20.837c1.252-10.471,13.462-25.531,19.333-34c4.706-6.788,10.345-8.544,12.403-16.667
			c2.326-9.186-8.928-12.77-8-23.333c0.545-6.186,1.333-21.691,4-30c7.028-21.898,12.5-26.213,28-38.667
			c16.126-12.958,54.764-20.633,78.12-22.207c42.263-2.848,85.639,5.958,111.135,31.182c10.362,10.251,17.32,20.384,23.986,35.979
			c9.521,18.915,12.74,41.298,7.996,67.96c-5.581,31.362-42.166,31.007-50.447,60.419c-1.322,4.691-7.143,32.886-5.334,47.333
			C246.465,276.021,244.555,288.855,241.79,307.838z"/>
		<g>
			<path fill="#3399FF" d="M241.968,303.989c-38.263,0-76.526,0-114.79,0c1.53,0.779,3.06,1.562,4.59,2.342
				c-2.394-9.079,3.592-18.708,4.148-27.824c0.431-7.077-1.907-14.364-8.486-17.649c-11.886-5.937-28.574-0.797-40.876,1.117
				c-6.718,1.047-13.687,2.144-20.47,1.112c-9.801-1.485-6.542-11.026-4.604-17.744c1.236-4.284,2.137-8.646,1.663-13.116
				c-0.573-5.402-5.315-8.324-4.809-13.982c0.21-2.346-0.095-4.32-1.087-6.451c-0.916-1.968-2.811-3.617-3.077-5.84
				c-0.577-4.812,3.019-9.577,3.723-14.283c0.158-1.059-0.583-2.01-1.351-2.604c-7.233-5.603-16.39-8.543-24.03-13.59
				c-1.695-1.119-3.297-2.36-4.656-3.873c-1.54-1.715-0.492-3.334,0.222-5.33c2.072-5.792,5.73-11.024,9.195-16.051
				c2.957-4.29,6.026-8.521,9.115-12.717c3.536-4.805,8.248-7.9,10.964-13.396c5.11-10.338-4.616-15.594-6.743-24.622
				c-0.965-4.094,0.509-9.914,0.883-14.045c0.535-5.902,1.149-11.911,2.863-17.603c2.859-9.493,6.789-18.792,13.864-25.909
				c6.812-6.853,14.685-13.001,23.426-17.139c10.521-4.98,22.237-7.913,33.593-10.253c47.485-9.786,107.681-7.542,142.461,30.828
				c8.734,9.637,14.215,20.785,19.73,32.424c5.619,11.86,8.274,24.854,8.705,37.919c0.398,12.078,0.038,26.95-6.4,37.578
				c-4.641,7.653-12.422,12.761-19.635,17.73c-9.024,6.219-18.025,12.849-23.219,22.785c-4.723,9.04-5.906,20.049-7.352,30.004
				c-0.934,6.438-1.584,12.938-1.649,19.446c-0.081,7.979,1.49,15.959,1.917,23.931c0.743,13.857-0.912,27.475-2.902,41.156
				c-0.759,5.195,9.104,3.725,9.795-1.004c1.566-10.77,3.006-21.502,3.105-32.398c0.112-12.188-2.482-24.226-2.029-36.377
				c0.385-10.287,2.104-20.582,4.135-30.658c1.604-7.955,4.549-14.959,10.34-20.822c12.884-13.046,31.051-19.021,38.943-36.792
				c5.125-11.539,5.207-26.502,4.614-38.874c-0.604-12.656-3.595-25.11-8.835-36.637c-5.189-11.42-10.711-22.368-18.792-32.057
				c-7.663-9.188-16.883-16.812-27.282-22.699C228.2,7.181,201.355,2.606,175.58,2.124c-23.947-0.447-48.1,3.045-71.034,9.925
				c-18.895,5.666-37.16,16.041-49.128,32.146c-9.848,13.251-12.75,30.246-14.069,46.26c-0.614,7.451-0.978,13.283,3.343,19.761
				c1.699,2.547,3.61,4.738,4.358,7.773c1.094,4.436-3.537,8.789-6.318,11.485c-6.027,5.842-10.739,13.285-15.434,20.209
				c-4.544,6.703-9.032,14.024-10.265,22.152c-0.819,5.399,9.997,10.976,13.512,12.983c6.183,3.533,13.248,6.076,18.903,10.457
				c-0.451-0.868-0.901-1.735-1.351-2.604c-0.659,4.403-3.136,8.304-3.705,12.812c-0.69,5.482,4.48,8.578,4.146,13.764
				c-0.326,5.062,1.208,7.979,3.898,12.148c2.811,4.359,0.221,11.094-1.091,15.549c-2.249,7.64-3.968,16.304,4.038,21.191
				c5.606,3.424,12.851,3.312,19.167,2.93c14.239-0.862,28.849-6.385,43.156-4.512c7.469,0.979,8.734,7.706,8.327,14.395
				c-0.596,9.783-6.438,18.39-3.8,28.396c0.535,2.029,2.871,2.342,4.59,2.342c38.263,0,76.527,0,114.791,0
				C247.373,311.688,248.452,303.989,241.968,303.989z"/>
		</g>
	</g>
	<g id="brain_1_" display="inline">
		<g>
			<g>
				<path fill="#FFFFFF" d="M198.896,141.999c-15.17,7.007-45.501,5.767-52.69-12.455c-0.987-2.501-3.011-2.84-5.309-1.711
					c-14.007,6.877-28.606-2.443-30.489-17.485c-0.317-2.534-1.367-4.144-4.136-3.742c-19.094,2.772-29.054-15.984-27.397-31.771
					c0.226-2.147,0.653-4.268,1.184-6.358c-0.218,0.86,0.623-1.84,0.796-2.315c0.162-0.444,1.483-3.387,0.85-2.102
					c1.366-2.774,1.689-3.133,3.064-4.846c1.347-1.678,2.04-2.291,4.303-3.99c7.831-5.877,20.76-4.604,30.179-1.38
					c4.763,1.63,7.956-4.046,9.008-7.831c3.854-13.867,18.913-15.678,31.281-15.706c7.306-0.017,14.601,0.665,21.89,1.058
					c9.1,0.491,18.12,0.624,27.147,2.032c17.038,2.658,32.081,10.33,43.474,23.37c5.631,6.445,11.647,14.57,12.208,23.417
					c0.484,7.637-7.259,12.749-12.729,16.61c-3.213,2.267-6.855,13.071,0.201,11.965c9.42-1.476,17.778,6.726,18.99,15.661
					c0.034,0.589,0.075,1.178,0.125,1.767c-0.186,2.029-0.183,0.492,0.359-0.237c-0.273,0.368-1.477,1.259-2.169,1.716
					c-2.966,1.956-6.004,3.762-8.683,6.117c-3.758,3.303-6.369,7.587-8.188,12.202c-1.688,4.285-1.712,9.263-3.919,13.325
					c-4.362,8.033-17.689,6.113-24.163,2.875c-5.097-2.549-8.877,5.811-9.157,9.498c-0.557,7.325,1.514,14.873,6.09,20.661
					c0.252-2.639,0.504-5.274,0.754-7.913c-1.485,2.639-2.724,6.844-5.586,3.672c-2.966-3.283-4.367-8.039-5.795-12.119
					c-1.77-5.045-3.201-10.053-5.996-14.665c-2.455-4.049-4.442-4.576-2.16-9.072c1.162-2.293,2.906-6.982-0.147-8.745
					c-2.888-1.667-6.483,1.953-7.647,4.245c-3.586,7.066-6.613,14.387-1.701,21.506c4.339,6.284,6.137,13,8.846,20.055
					c1.863,4.854,4.854,12.83,10.863,13.767c8,1.245,13.865-8.365,17.121-14.144c1.164-2.068,2.479-5.734,0.754-7.914
					c-3.545-4.484-5.01-9.656-4.576-15.339c-3.055,3.166-6.104,6.331-9.157,9.497c11.499,5.752,24.952,4.18,34.276-4.896
					c5.218-5.073,7.803-11.271,9.484-18.229c1.33-5.505,2.5-7.964,7.276-10.989c9.956-6.307,15.66-14.691,13.249-26.854
					c-2.449-12.354-14.193-20.881-26.602-18.938c0.065,3.988,0.135,7.977,0.201,11.965c8.812-6.218,16.769-14.167,19.637-24.866
					c2.75-10.247-1.047-20.041-6.457-28.687c-11.213-17.921-29.629-29.077-49.989-33.299c-10.259-2.127-20.659-2.225-31.073-2.742
					c-9.219-0.458-18.41-1.364-27.649-0.918c-8.444,0.407-16.939,2.056-24.16,6.66c-9.104,5.805-14.213,15.141-17.037,25.3
					c3.002-2.61,6.005-5.22,9.008-7.831c-12.82-4.388-26.972-5.377-38.677,2.553c-10.74,7.276-17.281,19.328-19.421,31.959
					c-1.895,11.187-0.29,23.428,6.015,33.026c6.514,9.917,17.728,13.346,29.063,11.701c-1.379-1.248-2.757-2.495-4.136-3.742
					c1.225,9.79,5.143,18.521,13.648,24.024c8.521,5.515,19.218,4.069,27.863-0.176c-1.77-0.57-3.54-1.141-5.309-1.711
					c9.232,23.4,43.483,25.034,63.31,15.877C204.337,151.949,207.027,138.243,198.896,141.999L198.896,141.999z"/>
			</g>
		</g>
	</g>
</g>
<g>
	<path fill="#1B262B" d="M232.123,318.445c-47.705,0-67.084,0-114.79,0c-3.549-11.479,7.833-23.264,2.667-37.838
		c-6.78-19.131-46.714,0.365-62.608-10c-10.191-6.998-7.037-15.154-8.813-27.271c-0.528-3.598-4.478-8.408-5.38-11.754
		c-0.582-2.158,0.945-2.965,0.582-5.037c-0.592-3.387-3.058-3.121-3.527-5.559c-1.153-5.979,2.757-14.1,3.074-18.207
		c-6.014-4.916-19.053-11.129-21.936-19.172c1.252-10.471,10.129-23.531,16-32c4.707-6.788,4.551-12.21,6.608-20.333
		c2.326-9.186-5.484-16.91-4.556-27.473C39.989,97.616,40.333,84.309,43,76c11.389-20.501,11-18,24.5-32.5
		c17.218-10.024,55.265-24.858,78.62-26.432c42.263-2.848,85.639,5.958,111.135,31.182c10.362,10.251,14.938,15.076,21.604,30.671
		c24.053,47.782-4.474,99.418-10.925,108.881c-2.404,3.527-2.35,3.033,5.51-8.35c-13.232,23.705-30.014,22.424-38.295,51.836
		c-1.322,4.691-3.502,14.205-1.693,28.652C236.798,286.629,234.888,299.463,232.123,318.445z"/>
</g>
<g id="brain_2_" display="none">
	<g display="inline">
		<g>
			<path fill="#FFFFFF" d="M545.896,141.999c-15.17,7.007-45.502,5.767-52.69-12.455c-0.987-2.501-3.011-2.84-5.31-1.711
				c-14.006,6.877-28.605-2.443-30.488-17.485c-0.317-2.534-1.367-4.144-4.137-3.742c-19.094,2.772-29.054-15.984-27.396-31.771
				c0.227-2.147,0.652-4.268,1.184-6.358c-0.218,0.86,0.623-1.84,0.797-2.315c0.162-0.444,1.482-3.387,0.85-2.102
				c1.365-2.774,1.689-3.133,3.064-4.846c1.347-1.678,2.039-2.291,4.303-3.99c7.83-5.877,20.76-4.604,30.179-1.38
				c4.763,1.63,7.956-4.046,9.008-7.831c3.854-13.867,18.913-15.678,31.281-15.706c7.306-0.017,14.601,0.665,21.89,1.058
				c9.1,0.491,18.12,0.624,27.147,2.032c17.038,2.658,32.081,10.33,43.474,23.37c5.631,6.445,11.647,14.57,12.208,23.417
				c0.484,7.637-7.259,12.749-12.729,16.61c-3.213,2.267-6.855,13.071,0.201,11.965c9.42-1.476,17.778,6.726,18.99,15.661
				c0.034,0.589,0.075,1.178,0.125,1.767c-0.186,2.029-0.183,0.492,0.359-0.237c-0.273,0.368-1.477,1.259-2.169,1.716
				c-2.966,1.956-6.004,3.762-8.683,6.117c-3.758,3.303-6.369,7.587-8.188,12.202c-1.688,4.285-1.712,9.263-3.919,13.325
				c-4.362,8.033-17.689,6.113-24.163,2.875c-5.097-2.549-8.877,5.811-9.157,9.498c-0.557,7.325,1.514,14.873,6.09,20.661
				c0.252-2.639,0.504-5.274,0.754-7.913c-1.485,2.639-2.724,6.844-5.586,3.672c-2.966-3.283-4.367-8.039-5.795-12.119
				c-1.77-5.045-3.201-10.053-5.996-14.665c-2.455-4.049-4.442-4.576-2.16-9.072c1.162-2.293,2.906-6.982-0.147-8.745
				c-2.888-1.667-6.483,1.953-7.647,4.245c-3.586,7.066-6.613,14.387-1.701,21.506c4.339,6.284,6.137,13,8.846,20.055
				c1.863,4.854,4.854,12.83,10.863,13.767c8,1.245,13.865-8.365,17.121-14.144c1.164-2.068,2.479-5.734,0.754-7.914
				c-3.545-4.484-5.01-9.656-4.576-15.339c-3.055,3.166-6.104,6.331-9.157,9.497c11.499,5.752,24.952,4.18,34.276-4.896
				c5.218-5.073,7.803-11.271,9.484-18.229c1.33-5.505,2.5-7.964,7.276-10.989c9.956-6.307,15.66-14.691,13.249-26.854
				c-2.449-12.354-14.193-20.881-26.602-18.938c0.065,3.988,0.135,7.977,0.201,11.965c8.812-6.218,16.769-14.167,19.637-24.866
				c2.75-10.247-1.047-20.041-6.457-28.687c-11.213-17.921-29.629-29.077-49.989-33.299c-10.259-2.127-20.659-2.225-31.073-2.742
				c-9.219-0.458-18.41-1.364-27.648-0.918c-8.444,0.407-16.939,2.056-24.16,6.66c-9.104,5.805-14.213,15.141-17.037,25.3
				c3.002-2.61,6.005-5.22,9.008-7.831c-12.82-4.388-26.973-5.377-38.677,2.553c-10.74,7.276-17.281,19.328-19.421,31.959
				c-1.896,11.187-0.291,23.428,6.015,33.026c6.515,9.917,17.728,13.346,29.063,11.701c-1.379-1.248-2.758-2.495-4.137-3.742
				c1.225,9.79,5.143,18.521,13.648,24.024c8.521,5.515,19.218,4.069,27.863-0.176c-1.771-0.57-3.541-1.141-5.31-1.711
				c9.231,23.4,43.483,25.034,63.31,15.877C551.337,151.949,554.027,138.243,545.896,141.999L545.896,141.999z"/>
		</g>
	</g>
</g>
<g id="art" display="none">
	<path display="inline" fill="none" stroke="#000000" stroke-width="10" stroke-miterlimit="10" d="M200.171,216
		c0-25.714,71.063-25.085,73.093-24.975c13.09-8.32,38.699-47.001,34.736-62.627C291.93,65.03,232.965,24.09,156.764,24.09
		c-76.198,0-137.97,52.996-137.97,118.371c0,40.121,18.855,77.479,53.807,106.645c9.886,6.734,36.497,24.61,62.733,36.896
		c42.977,20.118,84.048,18.951,92.344,4.86c2.791-4.742,4.687-25.483-3.678-43.998C217.286,231.998,200.171,218.57,200.171,216z"/>
	
		<ellipse display="inline" stroke="#000000" stroke-width="10" stroke-miterlimit="10" cx="126.935" cy="75.432" rx="18.781" ry="16.976"/>
	
		<ellipse display="inline" stroke="#000000" stroke-width="10" stroke-miterlimit="10" cx="74.549" cy="128.398" rx="18.781" ry="16.976"/>
	
		<ellipse display="inline" stroke="#000000" stroke-width="10" stroke-miterlimit="10" cx="200.171" cy="75.432" rx="18.781" ry="16.976"/>
	
		<ellipse display="inline" stroke="#000000" stroke-width="10" stroke-miterlimit="10" cx="190.32" cy="263.839" rx="18.781" ry="16.976"/>
</g>
<g id="paiint" display="none">
	<path display="inline" fill="none" stroke="#000000" stroke-width="10" stroke-miterlimit="10" d="M171.605,62.639
		c12.283-26.81,41.646-39.65,65.592-28.682c43.021,19.707,81.021-62.354,21.115,68.403c-12.279,26.807-41.646,39.65-65.59,28.68
		C168.779,120.073,159.326,89.448,171.605,62.639z"/>
	<path display="inline" fill="none" stroke="#000000" stroke-width="10" stroke-miterlimit="10" d="M186.586,155.924
		c-0.617,0.904-5.554-1.398-11.023-5.138l-5.885-4.024c-5.471-3.741-9.404-7.506-8.787-8.409l12.835-18.771
		c0.617-0.903,5.553,1.397,11.023,5.139l5.884,4.024c5.472,3.741,9.405,7.506,8.787,8.409L186.586,155.924z"/>
	<path display="inline" fill="none" stroke="#000000" stroke-width="10" stroke-miterlimit="10" d="M63.027,288.012
		c-4.005,6.225-2.734,14.182,2.839,17.767l5.606,3.606c5.574,3.585,13.339,1.444,17.344-4.781l88.243-137.153
		c4.006-6.224,2.732-14.18-2.841-17.766l-5.604-3.606c-5.574-3.584-13.339-1.446-17.345,4.781L63.027,288.012z"/>
</g>
<g id="Layer_7" display="none">
	<path display="inline" fill="none" stroke="#000000" stroke-width="10" stroke-miterlimit="10" d="M28.455,274.949
		c-4.605,5.812-1.103,16.562,7.823,24.002l8.979,7.488c8.927,7.438,19.899,8.761,24.504,2.946l101.482-128.062
		c4.604-5.812,1.101-16.561-7.824-24.003l-8.979-7.485c-8.927-7.441-19.898-8.764-24.504-2.949L28.455,274.949z"/>
	<path display="inline" d="M172.589,134.077c-12.513-9.533-25.401-14.051-36.844-2.962c0.894-1.815,1.954-3.58,3.185-5.271
		c10.989-15.114,31.32-18.662,45.412-7.928c14.09,10.737,16.602,31.691,5.614,46.805c-1.229,1.692-2.579,3.237-4.022,4.637
		C193.029,154.951,185.104,143.611,172.589,134.077z"/>
	<path display="inline" d="M153.014,148.354c-10.525-8.058-12.77-12.875-19.91-7c0.438-1.094,1.006-2.13,1.713-3.095
		c6.297-8.629,21.011-8.267,32.863,0.806c11.854,9.073,16.354,23.421,10.057,32.049c-0.705,0.965-1.518,1.817-2.416,2.558
		C178.803,164.996,163.541,156.412,153.014,148.354z"/>
	<g display="inline">
		<path d="M191.908,102.481c22.229,12.957,31.863,39.115,27.525,66.875c15.328-6.25,29.93-17.359,41.34-32.691
			c27.899-37.483,26.177-85.987-3.853-108.337c-30.026-22.349-76.985-10.082-104.886,27.4c-10.425,14.006-16.71,29.55-18.933,44.696
			C153.195,92.352,174.615,92.401,191.908,102.481z"/>
	</g>
</g>
<g id="music" display="none">
	
		<ellipse transform="matrix(0.159 0.9873 -0.9873 0.159 313.8445 127.0986)" display="inline" stroke="#000000" stroke-width="12" stroke-miterlimit="10" cx="82.32" cy="247.766" rx="26.366" ry="50.735"/>
	
		<ellipse transform="matrix(0.159 0.9873 -0.9873 0.159 447.5696 -31.8907)" display="inline" stroke="#000000" stroke-width="12" stroke-miterlimit="10" cx="242.503" cy="246.761" rx="26.366" ry="50.735"/>
	
		<line display="inline" fill="none" stroke="#000000" stroke-width="12" stroke-miterlimit="10" x1="130.172" y1="234.034" x2="94" y2="53.159"/>
	
		<line display="inline" fill="none" stroke="#000000" stroke-width="12" stroke-miterlimit="10" x1="88.716" y1="57.953" x2="261.542" y2="27.593"/>
	
		<line display="inline" fill="none" stroke="#000000" stroke-width="12" stroke-miterlimit="10" x1="257.296" y1="22" x2="288.451" y2="229.732"/>
</g>
<g id="drama" display="none">
	<path display="inline" fill="none" stroke="#000000" stroke-width="10" stroke-miterlimit="10" d="M105.32,94.87
		c-29.336,8.521-54.292-28.215-81.386-28.215C14.493,88.811,9,115.277,9,143.71c0,30.983,12.345,61.574,23.391,84.853
		c16.751,35.301,38.091,56.313,68.758,56.313c28.998,0,48.951-24.237,65.843-56.313c12.754-24.22,26.307-51.311,26.307-84.853
		c0-26.445-4.751-51.186-13.012-72.345C153.876,75.182,132.478,86.98,105.32,94.87z"/>
	<path display="inline" d="M220.805,78.274c-35.472-1.233-55.141-44.784-85.973-51.197c-15.96,22.842-28.44,51.495-35.134,83.676
		c-7.293,35.067-0.446,72.608,6.645,101.569c10.753,43.918,30.089,72.751,64.987,80.01c32.998,6.862,61.408-15.846,88.182-48.15
		c20.219-24.392,42.018-51.846,49.911-89.808c6.228-29.93,9.583-53.86,5.165-79.761C283.635,72.681,253.973,79.427,220.805,78.274z"
		/>
	
		<ellipse transform="matrix(0.1223 -0.9925 0.9925 0.1223 26.5044 268.8548)" display="inline" fill="#FFFFFF" stroke="#000000" stroke-width="10" stroke-miterlimit="10" cx="165.267" cy="119.441" rx="16.548" ry="25.619"/>
	
		<ellipse transform="matrix(0.0633 -0.998 0.998 0.0633 -86.6241 197.2582)" display="inline" stroke="#FFFFFF" stroke-width="10" stroke-miterlimit="10" cx="61.772" cy="144.776" rx="16.548" ry="25.619"/>
	
		<ellipse transform="matrix(0.3797 -0.9251 0.9251 0.3797 21.9651 310.066)" display="inline" fill="#FFFFFF" stroke="#000000" stroke-width="10" stroke-miterlimit="10" cx="242.196" cy="138.654" rx="16.547" ry="24.015"/>
	<path display="inline" fill="#FFFFFF" d="M149.616,199.576c-0.526,18.309,11.112,34.802,28.481,38.67
		c16.75,3.727,33.43-5.482,40.866-21.27L149.616,199.576z"/>
	<ellipse display="inline" cx="100" cy="219.324" rx="18.5" ry="19.747"/>
</g>
<g id="film" display="none">
	
		<image display="inline" overflow="visible" enable-background="new    " width="1076" height="480" xlink:href="../../Graphic images/filmstrip-short.png"  transform="matrix(0.286 -0.0015 0.0015 0.2854 10.7988 82.499)">
	</image>
	<path display="inline" d="M54,90.457c0,4.203-2.91,7.609-6.5,7.609l0,0c-3.59,0-6.5-3.407-6.5-7.609v-5.809
		c0-4.203,2.91-7.61,6.5-7.61l0,0c3.59,0,6.5,3.407,6.5,7.61V90.457z"/>
	<path display="inline" d="M92.5,90.88c0,4.643-3.47,8.406-7.75,8.406l0,0c-4.28,0-7.75-3.763-7.75-8.406v-6.417
		c0-4.643,3.47-8.406,7.75-8.406l0,0c4.28,0,7.75,3.763,7.75,8.406V90.88z"/>
	<path display="inline" d="M128.5,90.241c0,4.442-2.91,8.043-6.5,8.043l0,0c-3.59,0-6.5-3.601-6.5-8.043V84.1
		c0-4.442,2.91-8.043,6.5-8.043l0,0c3.59,0,6.5,3.601,6.5,8.043V90.241z"/>
	<path display="inline" d="M161.5,91.016c0,4.999-2.91,9.051-6.5,9.051l0,0c-3.59,0-6.5-4.052-6.5-9.051v-6.909
		c0-4.999,2.91-9.051,6.5-9.051l0,0c3.59,0,6.5,4.052,6.5,9.051V91.016z"/>
	<path display="inline" d="M194.5,89.917c0,5.076-3.246,9.192-7.25,9.192l0,0c-4.004,0-7.249-4.116-7.249-9.192V82.9
		c0-5.076,3.245-9.191,7.249-9.191l0,0c4.004,0,7.25,4.115,7.25,9.191V89.917z"/>
	<path display="inline" d="M224.5,90.27c0,4.766-2.91,8.628-6.5,8.628l0,0c-3.59,0-6.5-3.863-6.5-8.628v-6.586
		c0-4.766,2.91-8.628,6.5-8.628l0,0c3.59,0,6.5,3.863,6.5,8.628V90.27z"/>
	<path display="inline" d="M257,89.878c0,4.643-2.91,8.406-6.5,8.406l0,0c-3.59,0-6.5-3.763-6.5-8.406v-6.417
		c0-4.643,2.91-8.406,6.5-8.406l0,0c3.59,0,6.5,3.763,6.5,8.406V89.878z"/>
	<path display="inline" d="M601.604,244.457c0,3.59-2.91,6.5-6.5,6.5l0,0c-3.591,0-6.5-2.91-6.5-6.5v-4.961
		c0-3.59,2.909-6.5,6.5-6.5l0,0c3.59,0,6.5,2.91,6.5,6.5V244.457z"/>
	<path display="inline" d="M290.104,90.308c0,4.259-2.91,7.711-6.5,7.711l0,0c-3.59,0-6.5-3.453-6.5-7.711v-5.886
		c0-4.259,2.91-7.711,6.5-7.711l0,0c3.59,0,6.5,3.453,6.5,7.711V90.308z"/>
	
		<line display="inline" fill="none" stroke="#000000" stroke-width="12" stroke-miterlimit="10" x1="237" y1="94.019" x2="237" y2="198.996"/>
	
		<line display="inline" fill="none" stroke="#000000" stroke-width="12" stroke-miterlimit="10" x1="141.5" y1="98.019" x2="141.5" y2="198.996"/>
	
		<line display="inline" fill="none" stroke="#000000" stroke-width="12" stroke-miterlimit="10" x1="54" y1="98.284" x2="54" y2="203.261"/>
	
		<line display="inline" fill="none" stroke="#000000" stroke-width="10" stroke-miterlimit="10" x1="15.25" y1="100.288" x2="307.75" y2="98.284"/>
	
		<line display="inline" fill="none" stroke="#000000" stroke-width="10" stroke-miterlimit="10" x1="15.25" y1="77.059" x2="307.75" y2="75.055"/>
	<path display="inline" d="M54,213.137c0,4.202-2.91,7.609-6.5,7.609l0,0c-3.59,0-6.5-3.407-6.5-7.609v-5.81
		c0-4.202,2.91-7.609,6.5-7.609l0,0c3.59,0,6.5,3.407,6.5,7.609V213.137z"/>
	<path display="inline" d="M92.5,213.561c0,4.643-3.47,8.405-7.75,8.405l0,0c-4.28,0-7.75-3.764-7.75-8.405v-6.418
		c0-4.643,3.47-8.404,7.75-8.404l0,0c4.28,0,7.75,3.763,7.75,8.404V213.561z"/>
	<path display="inline" d="M128.5,212.921c0,4.44-2.91,8.043-6.5,8.043l0,0c-3.59,0-6.5-3.603-6.5-8.043v-6.142
		c0-4.441,2.91-8.043,6.5-8.043l0,0c3.59,0,6.5,3.602,6.5,8.043V212.921z"/>
	<path display="inline" d="M161.5,213.695c0,4.998-2.91,9.051-6.5,9.051l0,0c-3.59,0-6.5-4.053-6.5-9.051v-6.909
		c0-4.999,2.91-9.052,6.5-9.052l0,0c3.59,0,6.5,4.053,6.5,9.052V213.695z"/>
	<path display="inline" d="M194.5,212.598c0,5.075-3.246,9.191-7.25,9.191l0,0c-4.004,0-7.249-4.116-7.249-9.191v-7.017
		c0-5.076,3.245-9.19,7.249-9.19l0,0c4.004,0,7.25,4.114,7.25,9.19V212.598z"/>
	<path display="inline" d="M224.5,212.95c0,4.766-2.91,8.628-6.5,8.628l0,0c-3.59,0-6.5-3.862-6.5-8.628v-6.587
		c0-4.766,2.91-8.629,6.5-8.629l0,0c3.59,0,6.5,3.863,6.5,8.629V212.95z"/>
	<path display="inline" d="M257,212.559c0,4.643-2.91,8.405-6.5,8.405l0,0c-3.59,0-6.5-3.764-6.5-8.405v-6.418
		c0-4.643,2.91-8.404,6.5-8.404l0,0c3.59,0,6.5,3.763,6.5,8.404V212.559z"/>
	<path display="inline" d="M290.104,212.986c0,4.26-2.91,7.712-6.5,7.712l0,0c-3.59,0-6.5-3.452-6.5-7.712V207.1
		c0-4.258,2.91-7.711,6.5-7.711l0,0c3.59,0,6.5,3.453,6.5,7.711V212.986z"/>
	
		<line display="inline" fill="none" stroke="#000000" stroke-width="10" stroke-miterlimit="10" x1="15.25" y1="222.968" x2="307.75" y2="220.964"/>
	
		<line display="inline" fill="none" stroke="#000000" stroke-width="10" stroke-miterlimit="10" x1="15.25" y1="199.739" x2="307.75" y2="197.734"/>
</g>
<g id="dance" display="none">
	<g id="XMLID_1_" display="inline">
		<g>
			<path fill="#FFFFFF" d="M299.105,246.598c0,0.851,0,1.699,0,2.561c-0.102-1.08-0.19-2.16-0.28-3.24
				C298.925,246.146,299.016,246.377,299.105,246.598z"/>
			<path fill="#FFFFFF" d="M292.695,296.797c1,3.08,0.05,3.45-2.95,4.271l-2.99-23.41c0.66,4.13,1.62,8.189,3.19,12.09
				C290.885,292.098,291.915,294.396,292.695,296.797z"/>
			<path fill="#FFFFFF" d="M290.415,78.567c0.91,22.21-0.021,44.44-1.521,66.62l-2.771-110.56L290.415,78.567z"/>
			<path fill="#FFFFFF" d="M290.415,78.567l-4.29-43.94v-21.96C286.575,34.627,289.505,56.507,290.415,78.567z"/>
			<path fill="#FFFFFF" d="M286.755,277.657l2.99,23.41l-19.55,2.319l-37.09,4.38l-6.121,1.96
				c-15.659,1.489-31.319,2.939-47.021,3.961h-0.01c-2.149-0.182-4.28-0.352-6.42-0.521c-9.56-0.739-19.15-0.85-28.72-1.64
				c-8.47-0.721-16.93-1.62-25.38-2.54c1.13-3.16,0.1-7.24-1.77-10.25c-1.82-2.92-3.9-6.2-5.52-7.68
				c-0.83-0.75-2.15-1.041-2.88-1.921c-0.78-0.931-1.16-2.341-1.68-3.12c-0.15-0.221-0.05-0.641-0.24-0.959
				c-1.44-2.41-3.29-4.472-4.56-6.24c-0.77-1.07-1.01-2.58-1.92-3.602c-0.64-0.72-1.75-0.93-2.4-1.68c-1.2-1.37-1.94-3.01-2.88-4.32
				c-1.51-2.09-3.23-3.079-4.8-4.8c-1.29-1.41-1.92-2.97-2.88-4.319c-1.55-2.16-5.29-2.959-5.28-6.24c3.75-2.229,9.34-0.41,13.68,0
				c1.46,0.141,2.92-0.129,4.32,0c6.05,0.58,10.36,3.09,13.92,5.761c2.94,5.69,8.05,10.78,12.72,14.88
				c2.31,2.029,3.39,4.859,5.52,6.48c1.71,1.299,3.3,2.18,4.8,3.6c4.42,4.18,8.99,8.17,14.16,11.521
				c5.29,3.43,11.65,5.539,16.8,8.879c1.75,1.141,3.261,2.551,5.04,3.601c1.96,1.16,6.801,3.51,8.641,3.84
				c2.08,0.38,4.649,0,6.721,0c2.189,0,4.76,0.36,6.72,0c6.38-1.18,8.94-9.529,11.04-15.12c2.602-6.92,5.04-12.529,7.68-18.479
				c1.62-3.66,4.04-8.021,5.521-11.28c0.82,0.03,0.609-0.99,1.439-0.96c6.771-11.229,14.461-21.54,22.801-31.2
				c1.55-4.68,5.68-6.8,4.56-14.16c-1.3-0.618-1.101-1.64-2.399-1.92c-2.689-0.569-5.771,2.7-7.92,2.4
				c0.5-4.71,4.18-8.38,4.801-13.2c0.34-2.71,0.818-8.13-0.48-9.84c-2.479-3.26-9.38,2.16-11.52,4.32
				c-2.762,2.789-4.53,6.358-6.48,8.879c-4.32,5.57-14.42,7.75-14.16,15.841c-3.29,0.26-4.529,1.42-5.52,3.84
				c-0.312,0.739-1.021,1.44-1.2,1.92c-0.74,1.99-0.62,4.222-1.44,6.24c-1.38,3.38-4.27,7.069-6.479,10.319
				c-1.21,1.771-2.46,3.26-3.36,5.041c-0.979,1.938-1.37,4.108-2.399,6c-1.399,2.568-4.01,4.979-3.84,8.879
				c-2.069,2.021-1.75,6.41-2.16,10.08c-5.221-2.779-8.209-7.789-11.521-12.479c-2.76-0.89-3.79-3.7-5.76-5.521
				c-1.841-1.699-4.96-2.229-6-4.801c-1.61-0.229-2.5-1.18-3.84-1.68c-0.92-4.68-2.27-8.93-1.92-14.88
				c-0.88-1.04-0.33-3.511-0.48-5.28c0.29-0.779-0.78-0.18-0.48-0.96c-1.42-12.739-6.87-21.45-14.64-27.84
				c-3.95-1.81-6.83-4.688-10.32-6.96c-0.25-2.881-0.77-5.471-1.44-7.92c0.55-1.48,1.29-2.66,1.92-4.08
				c0.64-1.43,0.81-3.43,1.68-4.561c0.82-1.061,3.51-1.939,5.52-2.879c2.1-0.99,4.18-2.24,5.76-2.882
				c3.79-1.54,9.14-0.01,14.16-0.479c3.79-0.351,7.521,0.271,11.04,0c3.279,0.781,6.359,2.24,9.6,2.881
				c3.102,0.609,5.602,0.51,7.922,1.439c0.979,0.391,1.729,1.5,2.879,1.92c1.819,0.67,5.17,0.971,7.439,0.479
				c2.16-0.47,2.98-2.688,6-1.92c4.98,1.28,8.65,4.521,15.12,4.8c5.22,0.23,11.351-0.479,15.36,0.48
				c3.229,2.608,6.66,5.01,12.479,5.039c2.78-2.399,7.78-1.029,12-1.439c3.551-0.34,6.301-2.71,9.359-3.6
				c2.361-0.69,5.32-0.49,4.561-3.84c-8.34-3.211-19.14-1.07-28.08-2.881c-1.17-0.24-2.47-1.021-3.84-1.439
				c-1.38-0.43-2.93-0.58-4.318-0.961c-4.07-1.119-6.791-3.01-9.842-4.561c-5.039-2.55-10.59-5.279-16.318-6.72
				c-0.34-0.95-1.84-0.72-2.4-1.438c-0.88,0-1.76,0-2.641,0c-2.17-1.91-6.34-1.82-8.879-3.361c-6.621,0.93-10.65-1.17-15.121-2.4
				c-2.689-0.74-5.521-1.11-7.92-1.92c-1.391-0.47-2.471-1.7-3.84-2.16c-3.801-1.28-9.01-1.5-13.201-1.68
				c-1.89-0.08-4.82,0.79-6-1.68c7.83,0.79,11.52-2.56,17.281-3.84c2.471-2.57,4.209-5.86,5.76-9.36
				c0.561-4.63,1.961-8.44,1.439-14.16c-0.34-0.55-0.479-1.29-0.96-1.68c2.45-0.83,1.84-3.24-0.479-3.84
				c-0.01-0.89,0.811-0.95,0.479-2.16c-1.09-0.83-2.688-1.16-4.8-0.96c0-0.8,0-1.6,0-2.4c-2.66-1.34-4.221-3.78-8.64-3.36
				c-0.58-0.7-1.14-1.42-2.64-1.2c0.14-1.02-0.24-1.53-0.96-1.68c-1.82-0.56-2.02,1.92-3.6,2.4c-2.89,0.88-6.82-1.62-10.56-1.2
				c-1.08,0.12-2.1,0.8-2.88,0.72c-2.57-0.25-3.63-3.36-6.72-2.4c-0.73,1.41-2.63,1.04-3.84,1.92c-0.65,0.47-0.75,1.57-1.44,1.92
				c-1.63,0.82-2.95-0.53-5.04,0c-1.25,1.12-0.66,2.53-1.44,3.84c-0.59,0.98-2.08,1.48-2.64,2.4c-2.74,4.49,1.3,6.99,1.92,11.28
				c0.53,3.76,0.33,8.65-3.12,8.64c-1.28-14.44,0.84-25.28,0.72-40.32c1.04,0,2.08,0,3.12,0c1.45-4.22,4.31-7.05,3.36-13.68
				c-1.33-1.47-3.55-2.05-5.52-2.88c1.06-6.33,1.74-14.77,0.96-22.32c-0.17-1.65-1.19-3.03-1.44-4.56c-0.83-5-0.2-10.75,0.48-14.88
				c0.69-4.26,2.64-7.57,4.08-10.8c-0.43-1.17-1.76-1.44-2.64-2.16c-0.01-4.81,3.33-13.63,0-15.6c-4.14-0.12-4.39,2.46-6,5.28
				c-1.15,2.01-2.79,3.34-3.12,5.52c-0.47,3.05-0.6,6.82-0.96,10.56c-0.68,7-2.79,14.42-0.48,19.44
				c-0.09,11.53-5.69,17.07-5.52,28.56c-0.34,0.46-1.17,0.43-1.68,0.72c-3.24,5.71-0.83,15.62-1.68,23.76
				c-0.34,3.25-1.61,6.7-1.92,9.84c-0.32,3.22-1.14,4.34-1.44,6.96c-0.27,2.36,0.2,4.56,0,6.96c-1.67,2.28-0.61,5.97-0.96,9.6
				c-0.35,3.6-1.38,7.28-0.96,11.52c-1.69,5.27-4.13,10.6-6.24,16.32c-1.01,2.73-1.23,5.97-1.92,9.359
				c-0.64,3.141-2.34,6.061-2.64,8.881c-0.48,4.39,0.59,8.42,0,12.72c-0.2,1.43-1.24,2.3-1.44,3.601
				c-0.67,4.26,1.23,6.791,2.64,8.881c1.1,1.629,2.77,2.67,3.84,4.318c1.57,2.432,1.77,4.88,3.36,7.439
				c-3.54-0.609-8.64-0.389-12-0.959c-7.4-1.25-15.81-2.551-23.04-1.92c-9.89,0.858-19.08,5.31-17.04,17.76
				c0.55,3.359,3.38,6.41,5.04,8.64c2.4,3.229,4.61,7.44,7.92,9.36c8.11,9.65,12.63,22.89,20.16,33.119c1.4,1.841,2.08,4.74,3.84,6
				c2.01,1.439,4.83,1.031,7.68,1.439c6.41,0.932,12.16,5.051,17.76,8.4c2.72,1.63,5.48,3.35,8.16,4.8c1.12,0.61,2.29,1.3,3.49,1.9
				c-7.64-0.83-15.29-1.65-22.95-2.32c-8.64-0.75-17.29-1.45-25.95-1.91c-7.49-0.39-14.76,0.721-22.14,1.49
				c-0.56-9.261-1.27-18.5-0.29-27.761c0.55-0.58,0.95-1.39,1.09-2.459c1.28-9.431-0.92-17.59-5.5-25.852
				c-4.82-8.71-3-18.92-2.11-28.38c1-10.66,0.56-21.51,0.66-32.21c0.09-11.2,0.2-22.41,0.33-33.61c0.25-22.43,0.6-44.85,1.14-67.28
				c0.26-11.03,0.65-22.11,0.32-33.15c-0.32-10.77-2.29-21.35-1.99-32.18c0.09-3.31-2.5-4.91-5.06-4.82c0-2.3,0-4.61,0-6.91
				c15.91,4.9,33.4-0.27,49.51-1.98c12.12-1.28,24.39-0.34,36.55-0.29c12.42,0.05,24.8,0.86,37.17,1.89
				c24.93,2.06,49.67,4.01,74.709,3.82c19.141-0.15,38.271-1.11,57.399-1.74v21.96l2.771,110.56
				c-0.709,10.62-1.561,21.22-2.399,31.81c-2.46,31.25-3.78,62.939-0.56,94.199C286.165,273.357,286.415,275.518,286.755,277.657z"
				/>
			<path fill="#FFFFFF" d="M270.195,303.388l19.55-2.319c-6.261,1.72-56.64,6.699-62.761,8.659l6.121-1.96L270.195,303.388z"/>
			<path d="M270.545,183.059c0.762,3.35-2.199,3.148-4.561,3.84c-3.061,0.89-5.811,3.26-9.359,3.6c-4.22,0.41-9.22-0.96-12,1.439
				c-5.818-0.029-9.25-2.431-12.479-5.039c-4.012-0.961-10.142-0.25-15.36-0.48c-6.47-0.279-10.14-3.52-15.12-4.8
				c-3.02-0.771-3.84,1.45-6,1.92c-2.27,0.489-5.62,0.19-7.439-0.479c-1.149-0.42-1.899-1.529-2.879-1.92
				c-2.32-0.931-4.82-0.83-7.922-1.439c-3.238-0.641-6.318-2.1-9.6-2.881c-3.52,0.271-7.25-0.351-11.04,0
				c-5.02,0.471-10.37-1.061-14.16,0.479c-1.58,0.642-3.66,1.892-5.76,2.882c-2.01,0.938-4.7,1.818-5.52,2.879
				c-0.87,1.131-1.04,3.131-1.68,4.561c-0.63,1.42-1.37,2.6-1.92,4.08c0.67,2.449,1.19,5.04,1.44,7.92
				c3.49,2.271,6.37,5.15,10.32,6.96c7.77,6.39,13.22,15.101,14.64,27.84c-0.3,0.78,0.77,0.181,0.48,0.96
				c0.15,1.771-0.4,4.24,0.48,5.28c-0.35,5.95,1,10.2,1.92,14.88c1.34,0.5,2.23,1.45,3.84,1.68c1.04,2.57,4.159,3.102,6,4.801
				c1.97,1.819,3,4.631,5.76,5.521c3.312,4.69,6.3,9.7,11.521,12.479c0.41-3.67,0.09-8.061,2.16-10.08
				c-0.17-3.899,2.439-6.311,3.84-8.879c1.029-1.892,1.42-4.062,2.399-6c0.899-1.78,2.149-3.271,3.36-5.041
				c2.21-3.25,5.1-6.939,6.479-10.319c0.82-2.021,0.7-4.25,1.44-6.24c0.18-0.479,0.89-1.18,1.2-1.92c0.99-2.42,2.229-3.58,5.52-3.84
				c-0.26-8.091,9.84-10.271,14.16-15.841c1.95-2.521,3.72-6.09,6.48-8.879c2.14-2.16,9.039-7.58,11.52-4.32
				c1.3,1.71,0.82,7.13,0.48,9.84c-0.621,4.82-4.302,8.49-4.802,13.2c2.15,0.3,5.23-2.97,7.921-2.4
				c1.301,0.28,1.101,1.302,2.399,1.921c1.12,7.359-3.011,9.479-4.56,14.159c-8.34,9.66-16.03,19.972-22.801,31.2
				c-0.83-0.03-0.619,0.99-1.439,0.96c-1.48,3.26-3.9,7.62-5.521,11.28c-2.64,5.949-5.078,11.56-7.68,18.479
				c-2.1,5.591-4.66,13.94-11.04,15.12c-1.96,0.36-4.53,0-6.72,0c-2.07,0-4.641,0.38-6.721,0c-1.841-0.33-6.681-2.68-8.641-3.84
				c-1.779-1.05-3.29-2.46-5.04-3.6c-5.149-3.341-11.51-5.45-16.8-8.88c-5.17-3.352-9.74-7.342-14.16-11.521
				c-1.5-1.42-3.09-2.301-4.8-3.6c-2.13-1.621-3.21-4.451-5.52-6.48c-4.67-4.1-9.78-9.189-12.72-14.88
				c-3.56-2.67-7.87-5.181-13.92-5.761c-1.4-0.129-2.86,0.141-4.32,0c-4.34-0.409-9.93-2.229-13.68,0
				c-0.01,3.281,3.73,4.08,5.28,6.24c0.96,1.351,1.59,2.909,2.88,4.319c1.57,1.722,3.29,2.71,4.8,4.8
				c0.94,1.311,1.68,2.95,2.88,4.32c0.65,0.75,1.76,0.96,2.4,1.68c0.91,1.021,1.15,2.53,1.92,3.602c1.27,1.77,3.12,3.83,4.56,6.24
				c0.19,0.318,0.09,0.738,0.24,0.959c0.52,0.779,0.9,2.189,1.68,3.121c0.73,0.879,2.05,1.17,2.88,1.92
				c1.62,1.479,3.7,4.76,5.52,7.68c1.87,3.01,2.9,7.09,1.77,10.25c-2.07-0.221-4.13-0.45-6.2-0.67c-1.2-0.602-2.37-1.29-3.49-1.9
				c-2.68-1.45-5.44-3.17-8.16-4.8c-5.6-3.351-11.35-7.47-17.76-8.4c-2.85-0.409-5.67,0-7.68-1.438c-1.76-1.26-2.44-4.16-3.84-6
				c-7.53-10.23-12.05-23.471-20.16-33.12c-3.31-1.92-5.52-6.13-7.92-9.36c-1.66-2.229-4.49-5.279-5.04-8.64
				c-2.04-12.45,7.15-16.9,17.04-17.761c7.23-0.629,15.64,0.67,23.04,1.92c3.36,0.57,8.46,0.351,12,0.961
				c-1.59-2.562-1.79-5.01-3.36-7.44c-1.07-1.649-2.74-2.688-3.84-4.319c-1.41-2.09-3.31-4.619-2.64-8.879
				c0.2-1.302,1.24-2.172,1.44-3.602c0.59-4.3-0.48-8.33,0-12.721c0.3-2.819,2-5.739,2.64-8.879c0.69-3.392,0.91-6.631,1.92-9.36
				c2.11-5.72,4.55-11.05,6.24-16.32c-0.42-4.24,0.61-7.92,0.96-11.52c0.35-3.63-0.71-7.32,0.96-9.6c0.2-2.4-0.27-4.6,0-6.96
				c0.3-2.62,1.12-3.74,1.44-6.96c0.31-3.14,1.58-6.59,1.92-9.84c0.85-8.14-1.56-18.05,1.68-23.76c0.51-0.29,1.34-0.26,1.68-0.72
				c-0.17-11.49,5.43-17.03,5.52-28.56c-2.31-5.02-0.2-12.44,0.48-19.44c0.36-3.74,0.49-7.51,0.96-10.56
				c0.33-2.18,1.97-3.51,3.12-5.52c1.61-2.82,1.86-5.4,6-5.28c3.33,1.97-0.01,10.79,0,15.6c0.88,0.72,2.21,0.99,2.64,2.16
				c-1.44,3.23-3.39,6.54-4.08,10.8c-0.68,4.13-1.31,9.88-0.48,14.88c0.25,1.53,1.27,2.91,1.44,4.56c0.78,7.55,0.1,15.99-0.96,22.32
				c1.97,0.83,4.19,1.41,5.52,2.88c0.95,6.63-1.91,9.46-3.36,13.68c-1.04,0-2.08,0-3.12,0c0.12,15.04-2,25.88-0.72,40.32
				c3.45,0.01,3.65-4.88,3.12-8.64c-0.62-4.29-4.66-6.79-1.92-11.28c0.56-0.92,2.05-1.42,2.64-2.4c0.78-1.31,0.19-2.72,1.44-3.84
				c2.09-0.53,3.41,0.82,5.04,0c0.69-0.35,0.79-1.45,1.44-1.92c1.21-0.88,3.11-0.51,3.84-1.92c3.09-0.96,4.15,2.15,6.72,2.4
				c0.78,0.08,1.8-0.6,2.88-0.72c3.74-0.42,7.67,2.08,10.56,1.2c1.58-0.48,1.78-2.96,3.6-2.4c0.72,0.15,1.1,0.66,0.96,1.68
				c1.5-0.22,2.06,0.5,2.64,1.2c4.42-0.42,5.98,2.02,8.639,3.36c0,0.8,0,1.6,0,2.4c2.111-0.2,3.711,0.13,4.801,0.96
				c0.33,1.21-0.49,1.27-0.479,2.16c2.318,0.6,2.93,3.01,0.479,3.84c0.48,0.39,0.62,1.13,0.96,1.68
				c0.521,5.72-0.88,9.53-1.438,14.16c-1.552,3.5-3.291,6.79-5.762,9.36c-5.76,1.28-9.45,4.63-17.28,3.84c1.18,2.47,4.11,1.6,6,1.68
				c4.19,0.18,9.4,0.4,13.202,1.68c1.368,0.46,2.448,1.69,3.84,2.16c2.398,0.81,5.229,1.18,7.92,1.92c4.47,1.23,8.5,3.33,15.119,2.4
				c2.541,1.539,6.711,1.449,8.881,3.359c0.879,0,1.76,0,2.64,0c0.562,0.721,2.062,0.489,2.399,1.439
				c5.729,1.439,11.279,4.17,16.319,6.72c3.052,1.552,5.771,3.44,9.841,4.562c1.391,0.38,2.939,0.529,4.319,0.96
				c1.37,0.42,2.67,1.2,3.84,1.44C251.404,181.986,262.205,179.848,270.545,183.059z"/>
		</g>
	</g>
</g>
<g id="dancer_icon" display="none">
	<g display="inline">
		<g>
			<g>
				<path fill="#FFFFFF" d="M116.5,10.5c-2.383,0.99-4.456,2.465-6.161,4.22c-1.71,1.758-3.067,3.778-4.143,5.973
					c-2.14,4.41-3.203,9.488-3.406,15.717c-0.043,1.301-0.065,3.095-0.033,5.256l0.087,3.499l0.233,5.968
					c0.102,2.885-0.289,5.868-1.062,8.9c-0.767,3.038-1.903,6.131-3.15,9.346c-1.243,3.217-2.604,6.566-3.723,10.184
					c-1.115,3.627-1.98,7.481-2.069,11.68c-0.002,7.364,0.001,14.612-0.375,22c-0.37,7.356-1.159,14.784-2.521,22.17
					c-1.369,7.323-3.592,14.663-6.01,22.159c-1.207,3.75-2.457,7.545-3.648,11.417c-0.596,1.935-1.176,3.889-1.729,5.863l-1.63,5.85
					c-1.066,4.015-2.103,8.254-2.135,12.98c-0.001,1.18,0.07,2.389,0.25,3.62c0.091,0.615,0.209,1.235,0.36,1.857
					c0.083,0.312,0.153,0.62,0.253,0.932c0.095,0.318,0.191,0.625,0.284,0.869l0.505,1.49c0.187,0.536,0.387,1.065,0.596,1.589
					c0.417,1.047,0.872,2.062,1.338,3.044c0.934,1.961,1.909,3.771,2.694,5.479c0.394,0.856,0.746,1.694,1.044,2.528l0.212,0.626
					l0.144,0.455l0.003,0.014c0,0.015,0.017,0.051-0.012,0.037l-2.498-0.442c-5.032-0.884-10.194-1.707-15.544-2.021
					c-2.676-0.154-5.405-0.175-8.203,0.067c-2.794,0.254-5.682,0.761-8.576,1.921c-2.865,1.141-5.805,3.146-7.747,6.035
					c-0.249,0.352-0.465,0.722-0.683,1.091c-0.2,0.36-0.379,0.71-0.553,1.062c-0.347,0.67-0.677,1.508-0.933,2.276
					c-0.516,1.579-0.783,3.188-0.876,4.755c-0.167,3.139,0.313,6.082,1.04,8.826c0.73,2.752,1.726,5.327,2.829,7.809
					c2.225,4.947,4.907,9.511,7.663,13.922l4.147,6.498c0.671,1.054,1.362,2.143,1.947,3.131c0.631,1.092,1.321,2.252,2.01,3.367
					c2.772,4.486,5.938,8.938,9.879,12.83c3.918,3.905,8.589,7.088,13.466,9.438c1.219,0.592,2.451,1.143,3.69,1.648l1.854,0.733
					l1.738,0.678c2.371,0.93,4.788,1.846,7.237,2.689c2.452,0.846,4.94,1.631,7.513,2.292c2.583,0.649,5.215,1.219,8.171,1.382
					c1.489,0.06,3.062,0.055,4.917-0.42c0.478-0.131,0.913-0.269,1.488-0.521c0.566-0.251,1.106-0.56,1.6-0.928
					c0.992-0.731,1.793-1.71,2.307-2.827c0.257-0.558,0.444-1.147,0.565-1.753c0.122-0.596,0.172-1.262,0.17-1.753
					c0.001-1.02-0.142-1.902-0.323-2.722c-0.41-1.763-1.049-3.126-1.748-4.44c-1.42-2.595-3.124-4.724-4.864-6.703
					c-1.748-1.972-3.562-3.771-5.371-5.502l-5.349-5.023c-0.862-0.818-1.703-1.631-2.487-2.438c-0.744-0.769-1.58-1.699-2.382-2.574
					c-3.213-3.528-6.36-7.131-9.361-10.711c-0.023-0.039-0.129-0.119-0.034-0.093l0.778,0.144c2.2,0.422,4.36,0.91,6.469,1.49
					c6.837,1.853,13.1,4.754,18.437,8.815c1.338,1.009,2.619,2.085,3.848,3.216c0.615,0.562,1.214,1.146,1.802,1.737
					c0.589,0.586,1.146,1.194,1.787,1.864c2.427,2.535,4.757,5.101,7.114,7.679c4.701,5.144,9.457,10.278,14.758,14.803
					c5.277,4.529,11.157,8.386,17.423,11.008c3.142,1.316,6.277,2.343,9.518,3.107c3.231,0.755,6.549,1.216,9.899,1.21
					c3.346-0.002,6.733-0.489,9.924-1.586c3.193-1.088,6.144-2.797,8.615-4.891c1.239-1.043,2.363-2.18,3.383-3.363
					c1.043-1.24,1.814-2.277,2.666-3.399c1.662-2.208,3.213-4.413,4.687-6.593c2.946-4.359,5.577-8.605,8.042-12.636
					c4.912-8.071,9.239-15.249,13.396-21.196l5.988-8.382c1.872-2.651,3.545-5.205,4.885-7.71c1.34-2.5,2.354-4.969,2.891-7.387
					c0.548-2.407,0.54-4.786,0.098-6.689c-0.433-1.913-1.188-3.268-1.719-4.092c-0.543-0.83-0.875-1.194-0.871-1.197
					c-0.005,0.021-0.699-0.975-2.324-2.279c-0.203-0.162-0.42-0.326-0.65-0.494l-0.605-0.42l-0.023-0.015
					c-0.021-0.008-0.039-0.016-0.012-0.04l0.193-0.359c0.445-0.84,0.876-1.722,1.3-2.651c0.845-1.864,1.663-3.918,2.396-6.231
					c0.707-2.343,1.427-4.83,1.584-8.092c0.019-0.497,0.01-1.224-0.053-1.837c-0.062-0.637-0.177-1.265-0.35-1.87
					c-0.35-1.208-0.96-2.305-1.859-3.158c-0.896-0.861-2.076-1.437-3.336-1.629c-1.263-0.207-2.636-0.033-3.979,0.4
					c-0.487,0.154-1.056,0.376-1.464,0.562c-0.43,0.19-0.659,0.312-0.987,0.479c-0.603,0.312-1.169,0.645-1.72,0.988
					c-0.527,0.328-1.129,0.729-1.645,1.111c-0.507,0.368-1.007,0.75-1.501,1.141c-1.979,1.562-3.88,3.283-5.745,5.144
					c-3.717,3.728-7.313,7.983-10.598,12.954c-1.631,2.494-3.186,5.165-4.499,8.157c-0.327,0.75-0.638,1.521-0.925,2.317
					l-0.047,0.125l0.005-0.011l-0.066,0.153l-0.227,0.511l-0.455,1.022c-0.61,1.365-1.238,2.738-1.888,4.115
					c-2.599,5.502-5.529,11.133-9.063,16.56c-1.771,2.705-3.692,5.356-5.832,7.806c-2.134,2.438-4.5,4.694-7.085,6.337
					c-2.584,1.648-5.337,2.573-7.998,2.341c-0.335-0.025-0.669-0.068-1.003-0.131c-0.354-0.066-0.692-0.142-0.968-0.223
					c-0.581-0.169-1.139-0.416-1.686-0.739c-1.093-0.643-2.137-1.628-3.082-2.856c-1.898-2.473-3.361-5.775-4.543-9.26
					c-1.185-3.506-2.112-7.252-2.936-11.104c-0.824-3.856-1.537-7.829-2.282-11.896c-0.765-4.072-1.485-8.211-2.704-12.572
					c-0.314-1.094-0.667-2.205-1.122-3.359l-0.176-0.436l-0.218-0.5l-0.42-0.85c-0.268-0.523-0.541-1.027-0.817-1.523
					c-1.105-1.976-2.255-3.813-3.392-5.643c-2.269-3.641-4.536-7.218-6.371-10.855c-0.909-1.812-1.708-3.645-2.216-5.391
					c-0.521-1.734-0.659-3.4-0.366-4.356c0.142-0.484,0.334-0.816,0.673-1.167c0.335-0.348,0.856-0.7,1.542-1.002
					c1.368-0.612,3.28-0.975,5.22-1.127c8.425-0.617,17.239,0.349,26.092,1.894c8.879,1.542,17.855,3.702,27.153,5.483
					c2.308,0.441,4.714,0.857,7.009,1.221l6.955,1.136c4.67,0.747,9.414,1.451,14.256,1.911c4.842,0.455,9.789,0.664,14.789,0.362
					c2.5-0.151,5.008-0.431,7.504-0.859c0.623-0.106,1.246-0.226,1.867-0.351l0.932-0.196l1.162-0.269
					c2.302-0.555,4.541-1.246,6.6-2.006c4.158-1.527,7.45-3.268,10.372-4.959l4.675-2.629l1.234-0.695l0.643-0.36l0.321-0.181
					l0.16-0.092c0.088-0.033,0.093-0.058,0.001-0.067l-2.691-0.751l-4.744-1.319c-1.523-0.416-2.986-0.864-4.826-1.219
					c-3.613-0.751-8.549-0.991-13.268-1.159l-1.96-0.09l-1.722-0.104c-1.137-0.078-2.256-0.18-3.35-0.313
					c-1.097-0.136-2.17-0.306-3.215-0.521l-0.312-0.066c-0.043-0.01,0.027,0.01-0.158-0.049l-0.803-0.262l-1.607-0.553
					c-4.292-1.531-8.595-3.465-13.1-5.288c-17.498-6.809-35.315-10.201-52.191-15.303c-2.551-0.717-4.798-1.046-7.036-1.409
					c-2.223-0.346-4.376-0.661-6.458-1.043l-1.837-0.361l-0.029-0.008c-0.019-0.006-0.038-0.014-0.053-0.027
					c-0.011-0.014,0.028-0.019,0.042-0.024l0.688-0.136c1.239-0.263,2.611-0.638,3.996-1.314c1.384-0.663,2.72-1.66,3.759-2.802
					c2.091-2.326,3.079-4.875,3.804-7.211c0.223-0.776,0.191-0.683,0.45-1.428c0.192-0.574,0.358-1.138,0.522-1.703
					c0.317-1.127,0.588-2.247,0.826-3.37c0.473-2.247,0.814-4.505,0.995-6.819c0.169-2.319,0.21-4.678-0.165-7.215
					c-0.104-0.638-0.218-1.28-0.398-1.948c-0.045-0.167-0.08-0.329-0.137-0.5l-0.209-0.65c-0.187-0.49-0.381-0.972-0.602-1.437
					l-0.725-1.357c-0.131-0.218-0.233-0.468-0.385-0.656l-0.734-0.279c-0.485-0.19-0.996-0.366-1.455-0.57l-0.471-0.203l-0.302-0.14
					c-1.612-0.764-3.278-1.797-5.088-2.893c-1.812-1.089-3.786-2.267-6.13-3.164c-0.588-0.22-1.19-0.428-1.823-0.598
					c-0.312-0.088-0.635-0.164-0.958-0.235l-0.245-0.05l-0.109-0.022l0.019,0.003l0.032,0.009l-0.227-0.064
					c-1.234-0.342-2.445-0.549-3.616-0.684c-2.342-0.263-4.523-0.25-6.577-0.233c-2.052,0.021-3.986,0.057-5.776-0.05l-0.662-0.047
					l-0.266-0.023c-0.13-0.014-0.254-0.016-0.376-0.014l-0.461,0.003l-1.222,0.022l-0.332,0.01l-1.315,0.061
					c-0.87,0.051-1.727,0.123-2.568,0.216c-3.36,0.375-6.492,1.113-9.149,2.34c-2.66,1.193-4.763,3.006-5.91,4.602
					c-1.307,1.742-2.047,3.792-2.275,5.645c-0.242,1.866-0.068,3.545,0.252,5.027c0.158,0.734,0.372,1.466,0.591,2.08
					c0.201,0.566,0.422,1.177,0.634,1.708l1.238,3.072c0.395,0.984,0.771,1.945,1.09,2.888c0.315,0.929,0.58,1.888,0.652,2.633
					c0.033,0.375,0.031,0.608,0.025,0.769c0.008,0.17-0.281,0.4-0.769,0.449c-0.976,0.109-2.225-0.201-3.433-0.596
					c0.908,0.918,1.81,1.794,3.142,2.333c0.647,0.25,1.603,0.403,2.549-0.104c0.93-0.518,1.41-1.386,1.698-2.083
					c0.558-1.444,0.656-2.718,0.727-3.96c0.05-1.238-0.002-2.432-0.105-3.615c-0.104-1.181-0.268-2.357-0.453-3.514l-0.273-1.705
					c-0.089-0.541-0.139-0.998-0.172-1.489c-0.065-0.962-0.029-1.889,0.148-2.7c0.177-0.818,0.479-1.497,0.975-2.155
					c0.444-0.588,1.297-1.415,2.94-2.164c1.624-0.751,3.972-1.354,6.745-1.654c0.693-0.076,1.413-0.136,2.154-0.179l1.128-0.051
					l0.287-0.009l1.063-0.019h0.29c0.004,0,0.005-0.001,0,0c0.002,0-0.012-0.002,0.003-0.001l0.105,0.009l0.839,0.06
					c2.219,0.129,4.32,0.081,6.317,0.063c1.993-0.019,3.89-0.014,5.61,0.184c0.857,0.099,1.669,0.243,2.412,0.45l0.144,0.041
					c0.134,0.037,0.264,0.08,0.404,0.106l0.419,0.084c0.178,0.041,0.356,0.081,0.538,0.133c0.361,0.095,0.731,0.224,1.108,0.364
					c3.06,1.128,6.341,3.728,10.642,5.812l0.674,0.308c0.006,0.001,0.006,0.006,0.008,0.011c-0.086-0.298,0.242,0.764,0.334,1.506
					c0.25,1.631,0.244,3.527,0.101,5.431c-0.147,1.912-0.442,3.869-0.849,5.796c-0.204,0.963-0.438,1.921-0.699,2.854
					c-0.135,0.463-0.271,0.926-0.42,1.368l-0.284,0.822l-0.233,0.817c-0.518,1.747-1.242,3.279-2.073,4.168
					c-0.419,0.449-0.843,0.771-1.411,1.048c-0.562,0.277-1.291,0.502-2.172,0.688c-0.179,0.05-1.546,0.288-2.571,0.438
					c-1.074,0.165-2.149,0.335-3.168,0.548c-2.052,0.42-3.809,1.004-5.26,1.654c-1.456,0.657-2.628,1.362-4.003,2.08l-2.13,1.146
					l-0.28,0.151c-0.084,0.022,0.001,0.06,0.022,0.091l0.1,0.097l0.414,0.401l0.865,0.833c1.11,1.061,2.029,1.966,3.026,2.889
					c1.033,0.912,2.348,1.798,4.008,2.597c1.651,0.799,3.64,1.491,5.741,2.04c0.526,0.136,1.056,0.267,1.591,0.389l1.333,0.29
					l1.71,0.332c2.267,0.416,4.5,0.74,6.663,1.078c2.142,0.337,4.302,0.688,6.041,1.186c8.604,2.582,17.397,4.76,26.042,7.065
					c4.329,1.155,8.633,2.354,12.895,3.659l3.186,1l3.193,1.043c2.06,0.677,4.082,1.445,6.144,2.277
					c4.317,1.743,8.712,3.725,13.402,5.402l1.774,0.609l0.896,0.291c0.103,0.023,0.444,0.168,0.696,0.205l0.563,0.117
					c1.289,0.266,2.573,0.469,3.845,0.624c1.271,0.157,2.529,0.269,3.771,0.354l1.85,0.111l1.614,0.075
					c0.046,0.003,0.093,0.003,0.14,0.013c0.02,0.017-0.065,0.043-0.099,0.055l-0.034,0.01l-1.389,0.303l-1.635,0.308
					c-2.188,0.376-4.405,0.624-6.643,0.76c-4.474,0.271-9.018,0.088-13.578-0.34c-4.563-0.433-9.147-1.109-13.755-1.847
					l-6.932-1.131c-2.329-0.369-4.53-0.75-6.806-1.186c-9.032-1.727-18.08-3.903-27.272-5.502
					c-9.187-1.592-18.563-2.672-28.046-1.98c-2.511,0.219-5.075,0.598-7.796,1.776c-1.346,0.599-2.744,1.44-3.962,2.685
					c-1.223,1.227-2.167,2.877-2.615,4.521c-0.463,1.65-0.509,3.24-0.391,4.676c0.125,1.439,0.416,2.754,0.772,3.99
					c0.724,2.468,1.704,4.648,2.742,6.729c2.092,4.137,4.471,7.859,6.725,11.483c1.125,1.806,2.232,3.585,3.198,5.312
					c0.24,0.432,0.472,0.858,0.685,1.277l0.286,0.572l0.218,0.525c0.32,0.81,0.61,1.707,0.875,2.633
					c1.051,3.736,1.783,7.812,2.533,11.832c0.741,4.037,1.467,8.09,2.328,12.113c0.863,4.024,1.844,8.028,3.178,11.979
					c1.359,3.938,2.995,7.886,5.76,11.526c1.389,1.801,3.118,3.525,5.288,4.812c1.078,0.64,2.256,1.162,3.478,1.519
					c0.625,0.182,1.203,0.305,1.769,0.41c0.586,0.107,1.179,0.186,1.771,0.231c2.38,0.2,4.77-0.116,6.932-0.775
					c2.168-0.661,4.125-1.642,5.885-2.757c3.521-2.25,6.318-4.992,8.785-7.797c2.459-2.818,4.571-5.744,6.49-8.678
					c3.823-5.875,6.887-11.784,9.59-17.504c0.674-1.432,1.321-2.852,1.949-4.256l0.467-1.05l0.23-0.522l0.16-0.361l0.15-0.413
					c0.221-0.612,0.467-1.226,0.732-1.834c1.066-2.437,2.42-4.784,3.869-6.998c2.921-4.43,6.236-8.36,9.585-11.715
					c1.678-1.674,3.375-3.207,5.065-4.542c0.422-0.334,0.844-0.655,1.266-0.962c0.406-0.302,0.754-0.53,1.181-0.8
					c0.406-0.254,0.804-0.483,1.183-0.682c0.164-0.084,0.424-0.213,0.494-0.24l0.055-0.025c0.021-0.008,0.048-0.014,0.062,0.005
					c0.008,0.008,0.012,0.019,0.014,0.028l0.002,0.016l-0.002,0.094c-0.072,1.87-0.623,4.073-1.227,5.996
					c-0.617,1.953-1.333,3.756-2.055,5.348c-0.362,0.798-0.729,1.543-1.092,2.228l-0.43,0.786c-0.205,0.361-0.42,0.717-0.641,1.064
					c-0.43,0.695-0.99,1.357-1.538,2.028l-1.606,1.968l-0.754,0.922l-0.18,0.221c-0.01,0.031-0.104,0.084-0.044,0.097l0.122,0.054
					l0.497,0.209l3.774,1.592c1.183,0.488,2.18,0.964,3.006,1.494l0.246,0.156l0.11,0.074l0.207,0.146l0.363,0.274
					c0.872,0.706,1.123,1.109,1.137,1.104c-0.03,0.021,0.665,0.611,1.022,2.068c0.168,0.743,0.227,1.812-0.104,3.295
					c-0.322,1.477-1.039,3.318-2.152,5.389c-1.108,2.076-2.601,4.373-4.383,6.895l-6.019,8.424
					c-4.351,6.223-8.779,13.576-13.653,21.578c-2.443,3.997-5.02,8.146-7.85,12.333c-1.415,2.093-2.895,4.194-4.463,6.277
					c-0.771,1.021-1.629,2.151-2.351,3.004c-0.767,0.891-1.594,1.725-2.487,2.476c-3.553,3.045-8.254,4.658-13.513,4.635
					c-5.231,0.005-10.936-1.451-16.366-3.705c-5.421-2.273-10.557-5.615-15.38-9.752c-4.84-4.127-9.382-9.008-14.061-14.135
					c-2.337-2.558-4.735-5.195-7.215-7.789c-0.587-0.61-1.23-1.313-1.905-1.985c-0.668-0.673-1.352-1.336-2.056-1.982
					c-1.407-1.296-2.883-2.536-4.431-3.704c-6.175-4.715-13.516-8.082-21.084-10.123c-2.338-0.644-4.7-1.177-7.071-1.631
					l-2.719-0.482c-1.14-0.191-2.276-0.362-3.406-0.523c-2.264-0.322-4.461-0.566-6.648-0.812l-6.634-0.752l-0.843-0.097
					l-0.208-0.022c-0.032-0.002-0.074-0.01-0.097-0.008l0.067,0.084l0.269,0.34l1.073,1.357l2.135,2.702
					c2.82,3.575,5.698,7.229,8.758,10.864c3.125,3.729,6.301,7.363,9.599,10.986c0.833,0.906,1.612,1.781,2.554,2.756
					c0.907,0.934,1.814,1.81,2.717,2.666l5.326,5.002c1.728,1.652,3.399,3.318,4.918,5.033c1.511,1.709,2.886,3.484,3.839,5.24
					c0.469,0.861,0.855,1.78,0.996,2.442c0.088,0.391,0.132,0.742,0.128,0.966l-0.003,0.098c0.002,0.004-0.002,0.008-0.002,0.011
					c-0.004,0.006-0.007,0.012-0.013,0.015l-0.008,0.005c0.006-0.001-0.152,0.06-0.276,0.089c-0.562,0.156-1.515,0.221-2.516,0.166
					c-2.038-0.104-4.333-0.563-6.606-1.146c-2.285-0.588-4.594-1.312-6.9-2.108c-2.31-0.797-4.61-1.669-6.942-2.582l-3.465-1.36
					c-1.102-0.449-2.182-0.935-3.241-1.447c-4.244-2.053-8.077-4.678-11.379-7.961c-3.315-3.271-6.13-7.18-8.719-11.375
					c-0.652-1.059-1.269-2.094-1.917-3.215c-0.717-1.209-1.398-2.278-2.1-3.381l-4.11-6.439c-2.666-4.264-5.175-8.562-7.149-12.963
					c-1.945-4.358-3.413-8.975-3.197-12.973c0.061-0.986,0.223-1.918,0.502-2.772c0.155-0.44,0.281-0.802,0.524-1.267l0.33-0.641
					c0.11-0.18,0.211-0.363,0.335-0.531c0.93-1.375,2.357-2.432,4.213-3.185c1.852-0.748,4.038-1.174,6.313-1.374
					c2.282-0.198,4.659-0.189,7.061-0.05c4.813,0.278,9.699,1.046,14.633,1.915l3.649,0.646c2.033,0.369,4.051,0.677,6.021,0.945
					l2.976,0.421l0.188,0.025c0.086,0.033,0.101-0.006,0.081-0.078l-0.023-0.35l-0.051-0.726l-0.101-1.433
					c-0.146-1.885-0.21-3.721-0.562-5.698c-0.162-0.979-0.398-1.979-0.676-2.964l-0.102-0.369l-0.07-0.229l-0.134-0.425
					l-0.284-0.837c-0.395-1.104-0.843-2.164-1.308-3.175c-0.934-2.025-1.912-3.831-2.737-5.573
					c-0.414-0.869-0.794-1.723-1.134-2.577c-0.17-0.427-0.332-0.854-0.481-1.282l-0.478-1.412c-0.088-0.232-0.142-0.414-0.193-0.586
					c-0.06-0.174-0.098-0.362-0.148-0.543c-0.09-0.371-0.163-0.752-0.221-1.146c-0.114-0.787-0.167-1.614-0.166-2.468
					c0.007-3.437,0.845-7.172,1.862-10.936l1.612-5.787c0.53-1.895,1.091-3.783,1.672-5.668c1.162-3.773,2.4-7.537,3.618-11.322
					c2.438-7.561,4.777-15.238,6.252-23.116c1.442-7.813,2.26-15.583,2.645-23.219c0.388-7.608,0.381-15.146,0.383-22.291
					c0.061-3.066,0.737-6.312,1.72-9.475c0.983-3.187,2.27-6.379,3.541-9.663c1.271-3.284,2.533-6.676,3.439-10.254
					c0.911-3.572,1.431-7.337,1.295-11.113l-0.24-5.952l-0.094-3.361c-0.039-2.053-0.027-3.72,0-4.916
					c0.134-5.74,0.404-10.068,1.041-14.123c0.33-2.024,0.762-3.983,1.481-5.977C113.833,14.533,114.859,12.498,116.5,10.5z"/>
			</g>
		</g>
	</g>
</g>
<g>
	<path fill="#BBC2C6" d="M283.928,91.076c24.313-1.242,16.541-35.4-4.096-33.757c2.806-9.952,1.68-14.96-4.134-20.118
		c-7.279-6.458-14.767-2.636-22.478,0.397c7.844-17.368-7.656-40.868-28.722-21.68c-4.935-19.688-41.935-24.688-50.553,5.786
		c-19.005-13.084-45.27,8.34-34.3,32.765c0,0-6.324,2.188-11.675,11.631c-2.907,5.13,1.15,13.874-0.283,10.63
		c5.711,15.114,26.665,21.777,44.186,6.6c-5.087,15.065,34,32.368,41.997,17c8.895,9.407,23.693,26.139,44.384,7.376
		c6.438,0.732,10,8.157,17.81,2.263C287.775,101.131,275.051,92.735,283.928,91.076"/>
</g>
<g display="none">
	<g display="inline">
		<g>
			<path d="M211.105,13.629c-1.408,15.592,0.951,31.244-0.457,46.836c0.029-0.326,2.753-1.549,3.049-1.72
				c0.33-0.19,2.977-1.372,3.014-1.78c1.408-15.592-0.951-31.244,0.457-46.836c-0.029,0.326-2.753,1.549-3.049,1.72
				C213.789,12.04,211.143,13.221,211.105,13.629L211.105,13.629z"/>
		</g>
	</g>
	<g display="inline">
		<g>
			<path d="M210.107,73.138c-0.993,4.468-0.907,8.936,0.059,13.4c-0.14-0.647,6.224-2.754,6.062-3.5
				c-0.967-4.464-1.053-8.932-0.059-13.4c-0.094,0.422-2.678,1.505-3.049,1.72C212.71,71.595,210.219,72.637,210.107,73.138
				L210.107,73.138z"/>
		</g>
	</g>
	<g display="inline">
		<g>
			<path d="M164.953,38.868c-0.877-3.435-0.265-6.937,2.607-9.224c-5.623,4.479-5.61,2.572-2.708,2.184
				c0.762-0.102,1.53,0.02,2.27,0.195c1.746,0.413,3.093,1.732,4.101,3.142c2.223,3.11,1.119,7.36,0.396,10.785
				c-0.901,4.268-2.131,8.792-0.728,13.085c-0.133-0.408,6.228-2.994,6.062-3.5c-1.609-4.923,0.178-10.179,1.129-15.058
				c0.857-4.401,0.726-8.89-3.565-11.417c-3.905-2.3-8.146,1.145-11.369,3.048c-3.865,2.284-5.39,5.823-4.257,10.259
				C158.747,41.807,165.121,39.528,164.953,38.868L164.953,38.868z"/>
		</g>
	</g>
	<g display="inline">
		<g>
			<path d="M172.225,65.701c0,0.988,0.001,1.977,0.073,2.962c0.029,0.409,0.034,1.605,0.593,1.705
				c0.134,0.024,0.854-0.465,0.9-0.491c0.719-0.405,1.434-0.816,2.148-1.229s1.428-0.827,2.138-1.246
				c0.004-0.002,0.792-0.549,0.876-0.534c-0.513-0.091-0.528-1.084-0.571-1.465c-0.12-1.059-0.095-2.138-0.095-3.202
				c0,0.027-0.951,0.52-0.9,0.491c-0.719,0.405-1.434,0.816-2.148,1.229s-1.428,0.827-2.138,1.246
				C173.127,65.152,172.225,65.63,172.225,65.701L172.225,65.701z"/>
		</g>
	</g>
	<g display="inline">
		<g>
			<path d="M260.945,45.075c-0.622-2.27-0.893-4.892,0.948-6.671c-4.181,4.042-6.582,3.019-4.009,2.631
				c0.54-0.082,1.095,0.019,1.622,0.127c1.294,0.268,2.4,1.133,3.322,2.03c3.237,3.151,3.25,10.806-0.859,13.428
				c1.986-1.143,3.973-2.286,5.959-3.429c-1.831,0.876-3.276-0.442-4.388-1.821c-0.033-0.041-5.722,2.968-6.062,3.5
				c-2.557,3.987-5.024,8.261-4.543,13.164c-0.02-0.196,2.832-1.594,3.049-1.72c0.242-0.14,3.041-1.502,3.014-1.78
				c-0.482-4.903,1.986-9.177,4.543-13.164c-2.021,1.167-4.042,2.333-6.062,3.5c1.112,1.378,2.557,2.697,4.388,1.821
				c2.15-1.029,4.253-2.341,6.263-3.624c2.985-1.905,3.599-7.401,2.693-10.479c-1.17-3.981-5.691-6.109-9.215-4.122
				c-1.972,1.112-4.403,2.11-6.05,3.702c-1.668,1.613-1.214,4.44-0.675,6.407C254.74,48.054,261.115,45.694,260.945,45.075
				L260.945,45.075z"/>
		</g>
	</g>
	<g display="inline">
		<g>
			<path d="M248.969,75.487c-0.001,2.039-0.058,4.038-0.667,6c0.022-0.071,0.907-0.495,0.9-0.491
				c0.719-0.405,1.434-0.816,2.148-1.229s1.428-0.827,2.138-1.246c0.033-0.02,0.839-0.416,0.876-0.534
				c0.608-1.962,0.666-3.961,0.667-6c0,0.027-0.951,0.52-0.9,0.491c-0.719,0.405-1.434,0.816-2.148,1.229
				c-0.714,0.413-1.428,0.827-2.138,1.246C249.87,74.938,248.969,75.416,248.969,75.487L248.969,75.487z"/>
		</g>
	</g>
</g>
<g>
	<g>
		<path d="M211.031,26.917c0.403-1.19,0.89-2.29,1.581-3.341c0.278-0.424,0.629-0.792,0.982-1.153
			c2.067-2.118-6.502,3.126-3.812,2.127c1.81-0.672,3.838-0.146,5.521,0.616c4.038,1.829,7.074,6.038,8.146,10.251
			c1.058,4.159-1.38,9.086-3.657,12.416c-0.602,0.88-1.307,1.68-2.06,2.431c-0.351,0.35-0.74,0.657-1.131,0.96
			c5.582-4.339,5.758-2.782,3.244-2.161c-2.135,0.528-4.056-0.684-5.479-2.147c-0.035-0.036-6.006,3.045-6.062,3.5
			c-0.689,5.553-1.311,11.114-2,16.667c0.044-0.351,2.735-1.539,3.049-1.72c0.35-0.202,2.96-1.348,3.014-1.78
			c0.688-5.553,1.31-11.114,2-16.667c-2.021,1.167-4.042,2.333-6.062,3.5c1.89,1.943,4.119,2.794,6.713,1.746
			c2.754-1.113,5.682-2.91,8.03-4.736c3.957-3.076,7.411-9.929,6.569-15.01c-0.866-5.23-5.541-10.616-10.842-11.577
			c-2.947-0.534-5.562,1.547-7.949,2.934c-2.945,1.712-4.722,3.3-5.855,6.643c0.171-0.503,2.599-1.46,3.049-1.72
			C208.511,28.413,210.835,27.495,211.031,26.917L211.031,26.917z"/>
	</g>
</g>
<g>
	<g>
		<path d="M205.636,79.083c-0.046,2.021-0.621,3.979-0.667,6c0.001-0.03,0.949-0.519,0.9-0.491c0.719-0.405,1.434-0.816,2.148-1.229
			s1.428-0.827,2.138-1.246c-0.022,0.014,0.874-0.459,0.876-0.534c0.046-2.021,0.621-3.979,0.667-6
			c-0.001,0.03-0.949,0.519-0.9,0.491c-0.719,0.405-1.434,0.816-2.148,1.229c-0.714,0.413-1.428,0.827-2.138,1.246
			C206.534,78.536,205.638,79.009,205.636,79.083L205.636,79.083z"/>
	</g>
</g>
</svg>
